<svg width="238" height="200" viewBox="0 0 238 200" fill="none" xmlns="http://www.w3.org/2000/svg">
<g clip-path="url(#clip0_2056_374)">
<path d="M209.89 141.413H27.5846V195.456H209.89V141.413Z" fill="#F0F0F0"/>
<path d="M129.366 152.582H108.109V195.456H129.366V152.582Z" fill="#CACACA"/>
<path d="M199.261 77.6418H38.213V127.361H199.261V77.6418Z" fill="#F0F0F0"/>
<path d="M215.589 80.7043H21.8855C21.5622 80.7043 21.2462 80.6076 20.9782 80.4266C20.7102 80.2457 20.5024 79.9887 20.3816 79.6887C20.2608 79.3887 20.2325 79.0594 20.3003 78.7432C20.3681 78.427 20.5289 78.1383 20.762 77.9142L73.7013 27.0286V4.86388C73.7018 4.43404 73.8727 4.02194 74.1767 3.71799C74.4806 3.41404 74.8927 3.24308 75.3226 3.24259H85.7709C86.2007 3.24306 86.6129 3.41403 86.9168 3.71798C87.2208 4.02193 87.3917 4.43403 87.3922 4.86388V13.869L91.3908 10.0254C97.9341 3.73584 106.615 0.155874 115.69 0.00497141C124.765 -0.145932 133.56 3.14341 140.309 9.21196L216.673 77.8773C216.917 78.0966 217.088 78.3847 217.165 78.7036C217.242 79.0225 217.22 79.3572 217.103 79.6634C216.985 79.9697 216.778 80.2331 216.507 80.419C216.237 80.6048 215.917 80.7043 215.589 80.7043Z" fill="#CACACA"/>
<path d="M80.7269 90.252C82.0754 90.252 83.4106 90.5175 84.6564 91.0336C85.9022 91.5496 87.0341 92.3059 87.9876 93.2594C88.9411 94.2129 89.6975 95.3449 90.2135 96.5907C90.7295 97.8365 90.9951 99.1717 90.9951 100.52V114.391H70.4587V100.52C70.4587 99.1717 70.7243 97.8365 71.2404 96.5907C71.7564 95.3449 72.5127 94.2129 73.4662 93.2594C74.4197 92.3059 75.5517 91.5496 76.7975 91.0336C78.0432 90.5175 79.3785 90.252 80.7269 90.252Z" fill="white"/>
<path d="M118.737 90.4321C121.46 90.4321 124.072 91.5139 125.998 93.4396C127.924 95.3653 129.005 97.977 129.005 100.7V114.571H108.469V100.7C108.469 97.977 109.551 95.3653 111.476 93.4396C113.402 91.5139 116.014 90.4321 118.737 90.4321Z" fill="white"/>
<path d="M156.748 90.6123C159.471 90.6123 162.083 91.6941 164.008 93.6198C165.934 95.5454 167.016 98.1572 167.016 100.88V114.752H146.479V100.88C146.479 98.1572 147.561 95.5454 149.487 93.6198C151.413 91.6941 154.024 90.6123 156.748 90.6123Z" fill="white"/>
<path d="M171.88 152.041C174.603 152.041 177.215 153.123 179.14 155.049C181.066 156.974 182.148 159.586 182.148 162.309V176.181H161.611V162.309C161.611 159.586 162.693 156.974 164.619 155.049C166.544 153.123 169.156 152.041 171.88 152.041Z" fill="white"/>
<path d="M70.2786 152.041C73.0019 152.041 75.6136 153.123 77.5393 155.049C79.4649 156.974 80.5468 159.586 80.5468 162.309V176.181H60.0104V162.309C60.0104 160.961 60.276 159.626 60.792 158.38C61.308 157.134 62.0644 156.002 63.0179 155.049C63.9713 154.095 65.1033 153.339 66.3491 152.823C67.5949 152.307 68.9301 152.041 70.2786 152.041Z" fill="white"/>
<path d="M236.524 142.257L202.326 127.124C202.142 127.043 201.943 127.001 201.742 127.001H38.7584C38.5723 127.001 38.388 127.037 38.2157 127.107L0.990704 142.239C0.681081 142.365 0.424835 142.595 0.265827 142.889C0.106819 143.183 0.0549354 143.523 0.11906 143.851C0.183184 144.179 0.359326 144.474 0.617338 144.687C0.87535 144.899 1.19919 145.016 1.53342 145.016H11.1915V194.735H10.1107V199.779H227.364V194.735H225.562V145.016H235.941C236.271 145.016 236.592 144.902 236.848 144.694C237.105 144.486 237.283 144.196 237.351 143.872C237.419 143.549 237.374 143.212 237.224 142.918C237.073 142.624 236.826 142.39 236.524 142.257ZM222.68 194.735H14.0738V145.016H222.68V194.735Z" fill="#CACACA"/>
<path d="M93.5172 112.41H67.2162V116.733H93.5172V112.41Z" fill="#CACACA"/>
<path d="M132.068 112.41H105.767V116.733H132.068V112.41Z" fill="#CACACA"/>
<path d="M170.619 112.41H144.318V116.733H170.619V112.41Z" fill="#CACACA"/>
<path d="M185.03 174.739H158.729V179.063H185.03V174.739Z" fill="#CACACA"/>
<path d="M83.0688 174.739H56.7678V179.063H83.0688V174.739Z" fill="#CACACA"/>
<path d="M178.162 76.9007C178.162 77.1833 178.157 77.4703 178.153 77.7528C178.149 78.0928 178.14 78.4283 178.127 78.7683C178.113 79.0641 178.1 79.3555 178.082 79.6468C178.029 80.6226 177.946 81.5939 177.831 82.5696C177.804 82.8169 177.773 83.0597 177.738 83.3069C177.711 83.4968 177.685 83.6911 177.654 83.8853C177.623 84.1016 177.592 84.318 177.557 84.5343C177.486 84.9935 177.407 85.4526 177.319 85.9118C177.274 86.1414 177.23 86.371 177.182 86.6005C177.089 87.0553 176.987 87.5144 176.882 87.9692C176.873 88.0045 176.864 88.0442 176.855 88.0796C176.802 88.3047 176.749 88.5255 176.692 88.7507C176.674 88.8168 176.661 88.8787 176.639 88.9449C176.599 89.1127 176.555 89.2804 176.511 89.4482C176.449 89.6822 176.387 89.9117 176.321 90.1458C176.215 90.5078 176.109 90.8655 175.999 91.2275C175.985 91.2651 175.973 91.3034 175.963 91.3423C175.751 92.0266 175.526 92.7021 175.279 93.3732C175.151 93.7264 175.014 94.084 174.877 94.4371C174.74 94.7903 174.599 95.1436 174.453 95.4924C174.312 95.8323 174.166 96.1723 174.021 96.5078C173.985 96.5873 173.95 96.6667 173.91 96.7462C173.756 97.095 173.597 97.4349 173.433 97.7749C173.429 97.7793 173.429 97.7882 173.425 97.7926C173.297 98.0663 173.16 98.34 173.023 98.6094C173.023 98.6175 173.019 98.6254 173.014 98.6314C172.882 98.8963 172.745 99.1612 172.603 99.4217L172.378 99.8499L172.352 99.8986C172.069 100.424 171.778 100.945 171.469 101.461C171.402 101.576 171.336 101.691 171.27 101.801C171.204 101.916 171.133 102.031 171.063 102.141C171.018 102.221 170.97 102.3 170.917 102.38C170.824 102.53 170.731 102.684 170.634 102.834C170.617 102.865 170.594 102.896 170.577 102.927C170.409 103.188 170.241 103.444 170.074 103.704C169.866 104.018 169.654 104.327 169.438 104.636L164.643 112.309L164.436 112.137L164.378 112.084H164.374L164.184 111.925L163.663 111.483C163.504 111.638 163.349 111.793 163.19 111.943C163.129 112.004 163.063 112.062 163.001 112.124C162.952 112.168 162.908 112.212 162.859 112.256C154.57 120.351 143.544 125.038 131.963 125.391H131.95C123.183 125.631 114.505 123.583 106.771 119.448C106.599 119.36 106.431 119.271 106.263 119.17C105.257 118.622 104.272 118.044 103.305 117.426C103.301 117.422 103.296 117.422 103.292 117.417C102.171 116.622 101.076 115.775 100.007 114.874C94.2754 110.043 89.7406 103.949 86.7586 97.0711C83.7766 90.1932 82.4284 82.7181 82.8197 75.2317C82.833 74.9359 82.8507 74.6446 82.8726 74.3487C82.9434 73.2803 83.0523 72.2163 83.1994 71.1567C83.2391 70.8609 83.2833 70.5651 83.3274 70.2737H177.711C177.897 71.6247 178.025 72.983 178.096 74.3487C178.14 75.201 178.162 76.0487 178.162 76.9007Z" fill="#F0F0F0"/>
<path d="M177.711 70.2737C176.012 58.9736 170.315 48.6584 161.654 41.2032C152.994 33.748 141.946 29.6477 130.519 29.6477C119.092 29.6477 108.044 33.748 99.3843 41.2032C90.7242 48.6584 85.0266 58.9736 83.3273 70.2737C83.2832 70.5651 83.239 70.8609 83.1993 71.1567C83.0537 72.2163 82.9447 73.2803 82.8726 74.3487H178.096C178.025 72.9845 177.897 71.6262 177.711 70.2737Z" fill="#F59E67"/>
<path d="M133.611 119.447H106.266V97.5719C106.77 87.575 115.314 86.7677 123.343 87.3042C124.691 87.3041 126.027 87.5697 127.272 88.0856C128.518 88.6016 129.65 89.3579 130.604 90.3113C131.557 91.2648 132.313 92.3967 132.829 93.6425C133.345 94.8883 133.611 96.2235 133.611 97.5719V119.447Z" fill="#F59E67"/>
<path d="M106.263 103.894V103.898C106.263 103.903 106.268 103.903 106.272 103.903L106.263 103.894ZM95.2655 70.2736C95.2478 70.384 95.2257 70.4944 95.208 70.6048C95.2257 70.4944 95.2478 70.384 95.2699 70.2736H95.2655ZM94.718 74.3487C94.7048 74.5165 94.6915 74.6842 94.6827 74.852C94.6915 74.6842 94.7048 74.5165 94.7225 74.3487C94.7217 74.3177 94.7232 74.2867 94.7269 74.256C94.7225 74.2869 94.7225 74.3178 94.718 74.3487ZM106.263 103.898C106.263 103.903 106.268 103.903 106.272 103.903L106.263 103.894V103.898ZM95.2655 70.2736C95.2478 70.384 95.2257 70.4944 95.208 70.6048C95.2257 70.4944 95.2478 70.384 95.2699 70.2736H95.2655ZM94.6827 74.852C94.6915 74.6842 94.7048 74.5165 94.7225 74.3487C94.7217 74.3177 94.7232 74.2867 94.7269 74.256C94.7225 74.2869 94.7225 74.3178 94.718 74.3487C94.7048 74.5165 94.6915 74.6842 94.6827 74.852ZM231.08 156.071C230.994 155.98 230.903 155.894 230.806 155.814L230.802 155.81L208.939 137.36L208.374 136.883L206.224 135.068L205.685 134.614L202.621 132.026L201.782 131.32L200.047 129.854L199.16 129.104L190.789 122.044L185.99 117.995L185.345 117.452L171.204 105.519C171.42 105.21 171.632 104.901 171.839 104.587C172.007 104.327 172.175 104.071 172.343 103.81C172.36 103.779 172.382 103.748 172.4 103.717C172.497 103.567 172.59 103.413 172.683 103.263C172.736 103.183 172.784 103.104 172.828 103.024C172.899 102.914 172.97 102.799 173.036 102.684C173.102 102.574 173.168 102.459 173.235 102.344C173.544 101.828 173.835 101.307 174.118 100.781L174.144 100.733L174.369 100.305C174.511 100.044 174.647 99.7792 174.78 99.5143C174.785 99.5083 174.789 99.5004 174.789 99.4922C174.926 99.2229 175.062 98.9492 175.19 98.6754C175.195 98.671 175.195 98.6622 175.199 98.6578C175.363 98.3178 175.522 97.9779 175.676 97.6291C175.716 97.5496 175.751 97.4701 175.786 97.3907C175.932 97.0551 176.078 96.7152 176.219 96.3753C176.365 96.0265 176.506 95.6732 176.643 95.32C176.78 94.9668 176.917 94.6093 177.045 94.256C177.288 93.5805 177.516 92.9036 177.729 92.2251C177.739 92.1863 177.751 92.1479 177.764 92.1103C177.875 91.7483 177.981 91.3907 178.087 91.0286C178.153 90.7946 178.215 90.5651 178.277 90.3311C178.321 90.1633 178.365 89.9955 178.405 89.8278C178.427 89.7616 178.44 89.6997 178.457 89.6335C178.515 89.4084 178.568 89.1876 178.621 88.9624C178.63 88.9271 178.639 88.8874 178.647 88.8521C178.753 88.3973 178.855 87.9381 178.948 87.4834C178.996 87.2538 179.04 87.0243 179.084 86.7947C179.168 86.3355 179.252 85.8763 179.323 85.4172C179.358 85.2008 179.389 84.9845 179.42 84.7682C179.451 84.5739 179.477 84.3797 179.504 84.1898C179.539 83.9426 179.57 83.6997 179.597 83.4525C179.711 82.4768 179.795 81.5055 179.848 80.5297C179.866 80.2384 179.879 79.947 179.892 79.6511C179.906 79.3112 179.914 78.9757 179.919 78.6357C179.923 78.3531 179.928 78.0662 179.928 77.7836C179.928 76.9315 179.906 76.0838 179.862 75.2317C179.791 73.8675 179.663 72.5091 179.477 71.1567C177.896 59.5958 172.206 48.9903 163.449 41.2787C154.692 33.5671 143.452 29.2645 131.784 29.1573C120.116 29.0502 108.799 33.1456 99.9017 40.6951C91.0044 48.2446 85.1211 58.7438 83.3273 70.2737C83.2832 70.5651 83.239 70.8609 83.1992 71.1567C83.0536 72.2163 82.9447 73.2803 82.8725 74.3487C82.8505 74.6445 82.8329 74.9359 82.8196 75.2317C82.4283 82.718 83.7765 90.1932 86.7585 97.0711C89.7405 103.949 94.2753 110.043 100.007 114.874C101.076 115.775 102.171 116.622 103.292 117.417C103.296 117.422 103.301 117.422 103.305 117.426C103.681 117.691 104.056 117.951 104.435 118.207C105.04 118.605 105.65 118.993 106.263 119.364C106.312 119.391 106.36 119.422 106.409 119.448C106.939 119.766 107.473 120.071 108.007 120.366H108.012C110 121.46 112.064 122.41 114.188 123.21C120.42 125.554 127.066 126.597 133.716 126.274H133.729C141.491 125.898 149.048 123.662 155.764 119.753C156.74 119.188 157.703 118.583 158.643 117.938C158.877 117.779 159.115 117.616 159.345 117.452C159.628 117.254 159.91 117.046 160.193 116.839C160.197 116.839 160.197 116.834 160.201 116.834C160.222 116.817 160.245 116.801 160.268 116.786C160.457 116.64 160.652 116.494 160.837 116.353C160.886 116.318 160.934 116.282 160.983 116.243C160.996 116.234 161.008 116.223 161.018 116.212C161.129 116.132 161.235 116.044 161.345 115.96C161.455 115.876 161.561 115.788 161.672 115.7C161.69 115.688 161.708 115.675 161.725 115.66C161.848 115.558 161.972 115.461 162.095 115.36C162.223 115.258 162.347 115.152 162.466 115.051C162.59 114.949 162.709 114.848 162.833 114.742C162.939 114.653 163.049 114.561 163.155 114.463C163.19 114.437 163.221 114.406 163.257 114.375C163.27 114.362 163.285 114.35 163.301 114.34C163.446 114.216 163.588 114.088 163.729 113.96C163.764 113.929 163.795 113.898 163.831 113.867C164.047 113.673 164.263 113.479 164.475 113.276C164.524 113.232 164.577 113.183 164.625 113.139C164.674 113.095 164.718 113.051 164.767 113.006C164.828 112.945 164.895 112.887 164.956 112.826C165.115 112.675 165.27 112.521 165.429 112.366L165.95 112.808L166.14 112.967H166.144L166.201 113.02L166.409 113.192L169.491 115.797L169.557 115.854L169.61 115.894L169.959 116.19L170.656 116.781L171.354 117.369L171.455 117.452L174.7 120.19L175.151 120.569L178.281 123.21L194.484 136.883L195.049 137.36L217.226 156.071L222.912 160.87L225.027 162.653C225.476 163.033 225.995 163.321 226.555 163.5C227.116 163.679 227.705 163.746 228.291 163.696C228.877 163.647 229.448 163.483 229.97 163.213C230.493 162.943 230.957 162.573 231.336 162.124C231.654 161.751 231.906 161.327 232.082 160.87C232.403 160.059 232.479 159.173 232.301 158.32C232.122 157.467 231.698 156.685 231.08 156.071ZM103.19 53.7262C107.62 48.4774 113.443 44.5887 119.989 42.5094C126.535 40.4301 133.535 40.245 140.181 41.9755C146.828 43.706 152.849 47.2815 157.549 52.2889C162.25 57.2963 165.437 63.5313 166.745 70.2736C166.802 70.5695 166.855 70.8608 166.903 71.1567C167.084 72.2118 167.217 73.2803 167.296 74.3487C167.318 74.6445 167.341 74.9359 167.354 75.2317C167.393 75.8939 167.411 76.5606 167.411 77.2229C167.414 81.2401 166.748 85.2297 165.442 89.0286V89.033C163.982 93.2925 161.741 97.2423 158.833 100.68C158.771 100.75 158.709 100.826 158.643 100.896C158.06 101.585 157.447 102.247 156.815 102.879C156.811 102.883 156.806 102.892 156.802 102.896C156.586 103.113 156.365 103.333 156.144 103.536C155.694 103.973 155.235 104.388 154.767 104.786C154.065 105.4 153.345 105.975 152.608 106.512C152.36 106.693 152.113 106.87 151.861 107.046C151.614 107.223 151.363 107.391 151.111 107.558C150.608 107.894 150.095 108.216 149.579 108.521C149.323 108.675 149.058 108.826 148.797 108.971C148.537 109.121 148.272 109.263 148.007 109.4C147.742 109.541 147.477 109.678 147.208 109.81C146.674 110.079 146.135 110.331 145.588 110.565C145.314 110.689 145.04 110.803 144.767 110.909C144.594 110.98 144.427 111.051 144.254 111.113C144.187 111.144 144.118 111.17 144.047 111.192C143.954 111.232 143.861 111.267 143.769 111.298C143.739 111.312 143.708 111.323 143.676 111.333C143.486 111.408 143.301 111.475 143.107 111.541C142.828 111.642 142.55 111.735 142.268 111.823C141.985 111.916 141.707 112.004 141.424 112.084C141.142 112.172 140.855 112.252 140.572 112.327C140.285 112.406 140.003 112.481 139.716 112.547C139.411 112.627 139.107 112.698 138.797 112.764C138.528 112.826 138.263 112.879 137.994 112.927C137.742 112.98 137.486 113.024 137.235 113.068C136.881 113.13 136.528 113.188 136.171 113.236C135.976 113.267 135.786 113.294 135.592 113.311C135.508 113.324 135.429 113.333 135.349 113.342C135.102 113.378 134.855 113.404 134.612 113.426C134.546 113.43 134.484 113.439 134.422 113.444C134.153 113.47 133.879 113.492 133.61 113.514C133.031 113.554 132.458 113.581 131.879 113.594C131.588 113.598 131.292 113.603 131.001 113.603C130.709 113.603 130.418 113.598 130.126 113.589C130.126 113.589 130.126 113.594 130.122 113.589C130.118 113.594 130.118 113.594 130.113 113.589C130.113 113.59 130.112 113.59 130.111 113.591C130.11 113.591 130.11 113.591 130.109 113.591C130.108 113.591 130.107 113.591 130.106 113.591C130.106 113.59 130.105 113.59 130.104 113.589C130.09 113.594 130.075 113.594 130.06 113.589C129.853 113.589 129.645 113.581 129.442 113.567C129.292 113.563 129.137 113.558 128.983 113.545C128.775 113.536 128.568 113.523 128.36 113.505C128.294 113.505 128.228 113.497 128.162 113.492C128.131 113.492 128.1 113.489 128.069 113.483C127.857 113.466 127.641 113.448 127.429 113.426C127.323 113.417 127.213 113.408 127.106 113.395C126.784 113.36 126.462 113.32 126.144 113.276C125.782 113.232 125.42 113.179 125.062 113.113C124.895 113.09 124.731 113.06 124.568 113.029C124.352 112.993 124.135 112.954 123.919 112.909C123.694 112.865 123.469 112.821 123.243 112.768C123.062 112.728 122.877 112.689 122.696 112.645C122.608 112.627 122.519 112.605 122.435 112.583C121.972 112.472 121.513 112.353 121.058 112.221C120.771 112.141 120.484 112.057 120.201 111.969C119.813 111.85 119.429 111.722 119.045 111.585C118.895 111.536 118.749 111.483 118.599 111.426C118.449 111.377 118.303 111.32 118.153 111.263C118.016 111.214 117.879 111.161 117.747 111.108C117.526 111.024 117.31 110.936 117.093 110.848C116.647 110.667 116.21 110.477 115.773 110.274C115.526 110.155 115.279 110.04 115.036 109.921C114.078 109.457 113.134 108.942 112.206 108.375C111.976 108.238 111.747 108.093 111.517 107.947C111.23 107.77 110.952 107.585 110.674 107.4C110.519 107.294 110.369 107.192 110.219 107.086C109.941 106.892 109.667 106.693 109.398 106.494C109.257 106.393 109.115 106.287 108.978 106.181C108.488 105.81 108.007 105.422 107.535 105.024C107.31 104.834 107.084 104.64 106.864 104.442C106.771 104.362 106.678 104.278 106.585 104.194C106.48 104.097 106.374 104.004 106.272 103.903L106.263 103.894C106.109 103.757 105.954 103.611 105.804 103.466C105.57 103.245 105.34 103.02 105.12 102.79C104.89 102.565 104.669 102.331 104.453 102.102C104.232 101.872 104.02 101.638 103.813 101.4C103.601 101.166 103.393 100.927 103.19 100.684C102.992 100.455 102.797 100.216 102.612 99.9823C102.162 99.426 101.732 98.8594 101.323 98.2825C101.133 98.0176 100.952 97.7527 100.775 97.4835C100.586 97.2097 100.404 96.9316 100.232 96.6534C100.051 96.3753 99.8791 96.0927 99.7113 95.8057C99.707 95.7959 99.7011 95.787 99.6937 95.7792C99.3626 95.2185 99.0447 94.6534 98.7488 94.0794C98.4442 93.4967 98.1572 92.908 97.8879 92.3134C97.7511 92.0176 97.6186 91.7174 97.495 91.4172C97.2389 90.8123 97.0005 90.2075 96.7797 89.5938C96.6694 89.298 96.5678 89.0021 96.4663 88.7019C96.463 88.6821 96.4571 88.6628 96.4486 88.6446C96.2455 88.0353 96.0601 87.4216 95.8967 86.8035C95.8923 86.7947 95.8923 86.7859 95.8879 86.7771C95.804 86.4724 95.7246 86.1677 95.654 85.8587C95.5833 85.5894 95.5215 85.3201 95.4641 85.0463C95.3979 84.7417 95.3317 84.4371 95.2742 84.128C95.2433 83.9691 95.2125 83.8101 95.1859 83.6512C95.1595 83.5187 95.1373 83.3819 95.1152 83.2495C95.0932 83.117 95.0711 82.9801 95.0491 82.8433C95.0049 82.5739 94.9651 82.3046 94.9299 82.0353C94.8857 81.7174 94.8504 81.3995 94.8151 81.0772C94.7753 80.6931 94.7401 80.309 94.7091 79.9205C94.687 79.66 94.6738 79.3951 94.6606 79.1302C94.6472 78.8874 94.6341 78.6446 94.6297 78.4018C94.6253 78.3889 94.6253 78.3749 94.6297 78.362C94.6291 78.3614 94.6286 78.3608 94.6283 78.36C94.6279 78.3593 94.6278 78.3584 94.6278 78.3576C94.6278 78.3568 94.6279 78.356 94.6283 78.3552C94.6286 78.3544 94.6291 78.3538 94.6297 78.3532C94.6253 78.3488 94.6253 78.3488 94.6297 78.3444C94.6291 78.3438 94.6286 78.3431 94.6283 78.3423C94.6279 78.3416 94.6278 78.3408 94.6278 78.3399C94.6278 78.3391 94.6279 78.3383 94.6283 78.3376C94.6286 78.3368 94.6291 78.3361 94.6297 78.3355C94.6253 78.2384 94.6208 78.1413 94.6208 78.0442C94.612 77.7572 94.6076 77.4702 94.6076 77.1833C94.6076 76.9227 94.612 76.6667 94.6164 76.4062C94.6252 76.0442 94.6385 75.6821 94.6561 75.3201C94.6561 75.2406 94.6649 75.1656 94.6694 75.0861C94.6738 75.0066 94.6783 74.9315 94.6827 74.852C94.6915 74.6842 94.7048 74.5165 94.7225 74.3487C94.7217 74.3177 94.7232 74.2867 94.7269 74.256C94.7401 74.0661 94.7576 73.8764 94.7753 73.6865C94.8107 73.3068 94.8548 72.9227 94.9033 72.5431C94.9298 72.3532 94.9519 72.1634 94.9829 71.9735C95.0005 71.8411 95.0225 71.7042 95.0446 71.5673C95.0623 71.4305 95.0844 71.2936 95.1109 71.1567C95.1418 70.9757 95.1728 70.7902 95.208 70.6048C95.2257 70.4944 95.2478 70.384 95.2699 70.2736C95.3538 69.8321 95.4464 69.3907 95.5479 68.9492C95.6494 68.5033 95.7643 68.0618 95.8879 67.6203C96.0071 67.1744 96.1395 66.7285 96.2809 66.2826C96.347 66.0574 96.4177 65.8366 96.4972 65.6159C96.6428 65.17 96.7974 64.7285 96.9696 64.2914C97.0491 64.0751 97.1329 63.8543 97.2256 63.638C97.4023 63.2009 97.5877 62.7638 97.7775 62.3355C97.8746 62.1192 97.9718 61.9029 98.0777 61.6865C98.2764 61.2583 98.4839 60.83 98.7091 60.4106C98.9254 59.9823 99.1594 59.5629 99.3979 59.1479C99.6363 58.7329 99.8835 58.3179 100.144 57.9073C100.263 57.7042 100.396 57.4967 100.532 57.298C100.797 56.8918 101.076 56.4856 101.358 56.0883C101.928 55.2847 102.541 54.4944 103.19 53.7262ZM94.718 74.3487C94.7048 74.5165 94.6915 74.6842 94.6827 74.852C94.6915 74.6842 94.7048 74.5165 94.7225 74.3487C94.7217 74.3177 94.7232 74.2867 94.7269 74.256C94.7225 74.2869 94.7225 74.3178 94.718 74.3487ZM95.2655 70.2736C95.2478 70.384 95.2257 70.4944 95.208 70.6048C95.2257 70.4944 95.2478 70.384 95.2699 70.2736H95.2655ZM106.263 103.894V103.898C106.263 103.903 106.268 103.903 106.272 103.903L106.263 103.894Z" fill="#3F3D56"/>
<path opacity="0.3" d="M107.535 105.024C100.552 99.1309 96.0402 90.8272 94.8959 81.7615C93.7515 72.6959 96.0583 63.5314 101.358 56.0879C100.662 56.7888 99.9893 57.5229 99.3397 58.2902C96.2568 61.9437 93.9238 66.1686 92.4738 70.7238C91.0238 75.2789 90.4852 80.0751 90.8887 84.8384C91.2923 89.6017 92.6301 94.2389 94.8257 98.4852C97.0214 102.731 100.032 106.504 103.685 109.587C111.064 115.813 120.614 118.852 130.234 118.037C139.854 117.222 148.756 112.619 154.982 105.241C155.63 104.473 156.24 103.686 156.813 102.88C150.367 109.357 141.721 113.173 132.593 113.57C123.464 113.967 114.519 110.916 107.535 105.024Z" fill="black"/>
</g>
<defs>
<clipPath id="clip0_2056_374">
<rect width="238" height="200" fill="white"/>
</clipPath>
</defs>
</svg>
