<svg width="207" height="200" viewBox="0 0 207 200" fill="none" xmlns="http://www.w3.org/2000/svg">
<g clip-path="url(#clip0_2056_329)">
<path d="M188.704 199.8V179.743C188.704 179.743 196.521 193.963 188.704 199.8Z" fill="#F1F1F1"/>
<path d="M189.187 199.797L174.412 186.233C174.412 186.233 190.173 190.091 189.187 199.797Z" fill="#F1F1F1"/>
<path d="M137.074 88.4986L58.669 134.324C58.3946 134.484 58.0679 134.528 57.7607 134.448C57.4534 134.367 57.1907 134.168 57.0301 133.894L6.61044 47.6274C6.45047 47.353 6.40589 47.0263 6.48647 46.7191C6.56704 46.4118 6.76621 46.1491 7.04026 45.9885L85.4454 0.163456C85.7199 0.00348959 86.0465 -0.0410951 86.3538 0.039483C86.661 0.120061 86.9238 0.319223 87.0844 0.593274L137.504 86.8597C137.664 87.1341 137.709 87.4607 137.628 87.768C137.547 88.0752 137.348 88.338 137.074 88.4986Z" fill="white"/>
<path d="M137.074 88.4986L58.669 134.324C58.3946 134.484 58.0679 134.528 57.7607 134.448C57.4534 134.367 57.1907 134.168 57.0301 133.894L6.61044 47.6274C6.45047 47.353 6.40589 47.0263 6.48647 46.7191C6.56704 46.4118 6.76621 46.1491 7.04026 45.9885L85.4454 0.163456C85.7199 0.00348959 86.0465 -0.0410951 86.3538 0.039483C86.661 0.120061 86.9238 0.319223 87.0844 0.593274L137.504 86.8597C137.664 87.1341 137.709 87.4607 137.628 87.768C137.547 88.0752 137.348 88.338 137.074 88.4986ZM7.28208 46.4022C7.11765 46.4986 6.99814 46.6562 6.94979 46.8406C6.90145 47.0249 6.9282 47.2209 7.0242 47.3856L57.4438 133.652C57.5402 133.816 57.6978 133.936 57.8822 133.984C58.0665 134.033 58.2625 134.006 58.4272 133.91L136.832 88.0848C136.997 87.9885 137.116 87.8308 137.165 87.6465C137.213 87.4621 137.186 87.2661 137.09 87.1015L86.6706 0.835082C86.5743 0.670643 86.4166 0.551139 86.2323 0.502791C86.0479 0.454443 85.8519 0.481199 85.6873 0.577189L7.28208 46.4022Z" fill="#3F3D56"/>
<path d="M57.6812 54.993L38.2351 66.3586C37.9607 66.5186 37.634 66.5632 37.3268 66.4826C37.0195 66.402 36.7568 66.2028 36.5962 65.9288L25.2306 46.4827C25.0706 46.2082 25.026 45.8816 25.1066 45.5743C25.1872 45.2671 25.3864 45.0043 25.6604 44.8437L45.1066 33.4782C45.381 33.3182 45.7076 33.2736 46.0149 33.3542C46.3221 33.4348 46.5849 33.6339 46.7455 33.908L58.111 53.3541C58.271 53.6285 58.3156 53.9552 58.235 54.2624C58.1544 54.5697 57.9553 54.8324 57.6812 54.993ZM25.9022 45.2575C25.7378 45.3538 25.6183 45.5115 25.5699 45.6958C25.5216 45.8802 25.5484 46.0762 25.6443 46.2408L37.0099 65.687C37.1063 65.8514 37.2639 65.9709 37.4483 66.0193C37.6326 66.0676 37.8286 66.0408 37.9933 65.9449L57.4394 54.5793C57.6039 54.4829 57.7234 54.3253 57.7717 54.1409C57.8201 53.9566 57.7933 53.7606 57.6973 53.5959L46.3317 34.1498C46.2354 33.9854 46.0777 33.8659 45.8934 33.8175C45.709 33.7692 45.513 33.7959 45.3484 33.8919L25.9022 45.2575Z" fill="#F2F2F2"/>
<path d="M53.4861 60.6368L34.04 72.0024C33.793 72.1463 33.499 72.1865 33.2225 72.1139C32.9459 72.0414 32.7095 71.8622 32.5649 71.6155L21.1994 52.1694C21.0554 51.9224 21.0153 51.6284 21.0878 51.3519C21.1603 51.0754 21.3395 50.8389 21.5862 50.6944L41.0323 39.3288C41.2793 39.1848 41.5733 39.1447 41.8498 39.2172C42.1264 39.2897 42.3628 39.469 42.5074 39.7156L53.8729 59.1618C54.0169 59.4087 54.057 59.7027 53.9845 59.9793C53.912 60.2558 53.7327 60.4923 53.4861 60.6368Z" fill="#F59E67"/>
<path d="M100.423 45.9709L39.6018 81.5185C39.3549 81.6628 39.0608 81.7032 38.7842 81.6306C38.5076 81.5581 38.2711 81.3786 38.1268 81.1317C37.9825 80.8848 37.9422 80.5907 38.0147 80.3141C38.0873 80.0374 38.2667 79.801 38.5136 79.6567L99.3345 44.109C99.4568 44.0376 99.5919 43.9909 99.7322 43.9717C99.8725 43.9524 100.015 43.961 100.152 43.9969C100.289 44.0329 100.418 44.0954 100.53 44.181C100.643 44.2666 100.738 44.3736 100.81 44.4959C100.881 44.6181 100.928 44.7532 100.947 44.8935C100.966 45.0338 100.958 45.1765 100.922 45.3135C100.886 45.4504 100.823 45.579 100.738 45.6918C100.652 45.8046 100.545 45.8994 100.423 45.9709Z" fill="#CCCCCC"/>
<path d="M89.4829 60.9687L43.3501 87.9317C43.2278 88.0031 43.0927 88.0498 42.9524 88.069C42.8121 88.0883 42.6694 88.0797 42.5324 88.0438C42.2558 87.9712 42.0193 87.7918 41.875 87.5449C41.7307 87.298 41.6904 87.0039 41.763 86.7272C41.8355 86.4506 42.015 86.2141 42.2619 86.0698L88.3947 59.1068C88.517 59.0354 88.6521 58.9887 88.7924 58.9695C88.9327 58.9502 89.0754 58.9588 89.2124 58.9947C89.3493 59.0307 89.4779 59.0932 89.5907 59.1788C89.7035 59.2644 89.7983 59.3714 89.8698 59.4936C89.9412 59.6159 89.9879 59.751 90.0071 59.8913C90.0263 60.0316 90.0177 60.1743 89.9818 60.3113C89.9459 60.4483 89.8834 60.5768 89.7978 60.6896C89.7122 60.8024 89.6052 60.8972 89.4829 60.9687Z" fill="#CCCCCC"/>
<path d="M86.4321 22.5082L59.5385 38.2266C59.2916 38.3709 58.9975 38.4112 58.7209 38.3387C58.4442 38.2661 58.2078 38.0866 58.0635 37.8398C57.9192 37.5929 57.8788 37.2987 57.9514 37.0221C58.0239 36.7455 58.2034 36.509 58.4503 36.3647L85.3439 20.6464C85.5908 20.5021 85.8849 20.4618 86.1615 20.5343C86.2985 20.5702 86.427 20.6328 86.5398 20.7184C86.6526 20.804 86.7475 20.911 86.8189 21.0332C86.8904 21.1555 86.937 21.2906 86.9563 21.4309C86.9755 21.5712 86.9669 21.7139 86.931 21.8508C86.8951 21.9878 86.8325 22.1164 86.7469 22.2292C86.6613 22.3419 86.5543 22.4368 86.4321 22.5082Z" fill="#CCCCCC"/>
<path d="M83.4686 32.8442L63.2867 44.6398C63.1645 44.7112 63.0293 44.7579 62.889 44.7771C62.7487 44.7963 62.606 44.7877 62.4691 44.7518C62.3321 44.7159 62.2035 44.6534 62.0908 44.5678C61.978 44.4822 61.8831 44.3752 61.8117 44.2529C61.7402 44.1307 61.6935 43.9955 61.6743 43.8552C61.6551 43.715 61.6637 43.5723 61.6996 43.4353C61.7355 43.2983 61.7981 43.1698 61.8837 43.057C61.9693 42.9442 62.0763 42.8493 62.1985 42.7779L82.3804 30.9823C82.6273 30.838 82.9214 30.7977 83.198 30.8702C83.4746 30.9428 83.7111 31.1222 83.8554 31.3691C83.9997 31.616 84.04 31.9102 83.9675 32.1868C83.8949 32.4634 83.7155 32.6999 83.4686 32.8442Z" fill="#CCCCCC"/>
<path d="M107.919 58.7971L47.0983 94.3447C46.8514 94.489 46.5573 94.5293 46.2807 94.4568C46.004 94.3842 45.7676 94.2048 45.6233 93.9579C45.4789 93.711 45.4386 93.4169 45.5112 93.1402C45.5837 92.8636 45.7632 92.6271 46.0101 92.4828L106.831 56.9352C107.078 56.7909 107.372 56.7506 107.649 56.8231C107.925 56.8957 108.162 57.0751 108.306 57.322C108.45 57.5689 108.491 57.863 108.418 58.1397C108.346 58.4163 108.166 58.6528 107.919 58.7971Z" fill="#CCCCCC"/>
<path d="M96.9793 73.7948L50.8465 100.758C50.7242 100.829 50.5891 100.876 50.4488 100.895C50.3085 100.914 50.1658 100.906 50.0289 100.87C49.8919 100.834 49.7633 100.771 49.6505 100.686C49.5377 100.6 49.4429 100.493 49.3715 100.371C49.3 100.249 49.2533 100.114 49.2341 99.9734C49.2149 99.8331 49.2235 99.6904 49.2594 99.5534C49.2953 99.4164 49.3579 99.2879 49.4435 99.1751C49.5291 99.0623 49.636 98.9675 49.7583 98.896L95.8912 71.933C96.0134 71.8615 96.1485 71.8149 96.2888 71.7956C96.4291 71.7764 96.5718 71.785 96.7088 71.8209C96.8458 71.8568 96.9743 71.9194 97.0871 72.005C97.1999 72.0906 97.2947 72.1976 97.3662 72.3198C97.4376 72.4421 97.4843 72.5772 97.5035 72.7175C97.5228 72.8578 97.5142 73.0005 97.4783 73.1375C97.4423 73.2744 97.3798 73.403 97.2942 73.5158C97.2086 73.6286 97.1016 73.7234 96.9793 73.7948Z" fill="#CCCCCC"/>
<path d="M115.416 71.6232L54.5947 107.171C54.4725 107.242 54.3373 107.289 54.1971 107.308C54.0568 107.327 53.9141 107.319 53.7771 107.283C53.6401 107.247 53.5116 107.184 53.3988 107.099C53.286 107.013 53.1911 106.906 53.1197 106.784C53.0482 106.662 53.0016 106.527 52.9823 106.386C52.9631 106.246 52.9717 106.103 53.0076 105.966C53.0435 105.829 53.1061 105.701 53.1917 105.588C53.2773 105.475 53.3843 105.38 53.5065 105.309L114.327 69.7614C114.45 69.6899 114.585 69.6432 114.725 69.624C114.865 69.6048 115.008 69.6134 115.145 69.6493C115.282 69.6852 115.411 69.7477 115.523 69.8334C115.636 69.919 115.731 70.0259 115.802 70.1482C115.874 70.2704 115.921 70.4056 115.94 70.5459C115.959 70.6862 115.95 70.8289 115.915 70.9658C115.879 71.1028 115.816 71.2313 115.73 71.3441C115.645 71.4569 115.538 71.5518 115.416 71.6232Z" fill="#CCCCCC"/>
<path d="M119.164 78.0363L58.3429 113.584C58.2207 113.655 58.0856 113.702 57.9453 113.721C57.805 113.741 57.6623 113.732 57.5253 113.696C57.3883 113.66 57.2598 113.598 57.147 113.512C57.0342 113.426 56.9394 113.319 56.8679 113.197C56.7965 113.075 56.7498 112.94 56.7306 112.799C56.7113 112.659 56.7199 112.516 56.7558 112.379C56.7918 112.243 56.8543 112.114 56.9399 112.001C57.0255 111.888 57.1325 111.794 57.2547 111.722L118.076 76.1744C118.198 76.103 118.333 76.0563 118.473 76.0371C118.614 76.0179 118.756 76.0264 118.893 76.0624C119.03 76.0983 119.159 76.1608 119.272 76.2464C119.384 76.332 119.479 76.439 119.551 76.5613C119.622 76.6835 119.669 76.8187 119.688 76.9589C119.707 77.0992 119.699 77.2419 119.663 77.3789C119.627 77.5159 119.564 77.6444 119.479 77.7572C119.393 77.87 119.286 77.9649 119.164 78.0363Z" fill="#CCCCCC"/>
<path d="M99.4956 103.002C100.341 102.007 101.101 100.943 101.77 99.8214C102.369 98.8097 102.957 97.728 103.089 96.5416C103.157 96.0363 103.104 95.5222 102.935 95.0412C102.767 94.5601 102.487 94.1256 102.119 93.773C101.763 93.445 101.312 93.2387 100.831 93.1841C100.351 93.1294 99.8648 93.2292 99.4445 93.469C99.0191 93.7131 98.6677 94.0677 98.4274 94.4953C98.1871 94.9229 98.0669 95.4074 98.0795 95.8977C98.114 96.4376 98.27 96.9626 98.5358 97.4338C98.8015 97.9049 99.1703 98.31 99.6144 98.6187C101.412 99.9212 104.22 99.8531 106.136 98.862C108.294 97.7456 109.409 94.8247 107.714 92.8252C107.361 92.4094 106.774 92.8741 106.862 93.3227C106.974 93.9287 107.314 94.469 107.811 94.8333C108.308 95.1976 108.925 95.3583 109.537 95.2828C110.148 95.2072 110.708 94.9009 111.101 94.4266C111.495 93.9523 111.692 93.3457 111.653 92.7307L110.891 93.1761C111.825 93.5901 112.852 93.7506 113.869 93.6416C114.885 93.5326 115.854 93.1578 116.68 92.5551C117.088 92.2585 117.453 91.906 117.763 91.5081C118.136 91.0214 118.763 90.7069 119.27 90.3562L122.928 87.8293C123.466 87.4576 122.954 86.5718 122.412 86.9465L119.1 89.2351C118.548 89.6165 117.992 89.9932 117.443 90.3794C117.051 90.6555 116.81 91.1012 116.453 91.4291C115.778 92.0368 114.943 92.4399 114.047 92.5915C113.151 92.743 112.231 92.6368 111.393 92.2851C111.315 92.2432 111.227 92.2219 111.139 92.2235C111.05 92.2251 110.963 92.2494 110.887 92.2941C110.81 92.3388 110.746 92.4025 110.702 92.4789C110.657 92.5553 110.632 92.642 110.63 92.7306C110.671 93.0976 110.565 93.4656 110.335 93.7546C110.105 94.0436 109.77 94.2302 109.404 94.2736C109.037 94.317 108.668 94.2138 108.377 93.9865C108.086 93.7592 107.897 93.4261 107.851 93.0599L106.999 93.5574C108.093 94.8472 107.365 96.8255 106.105 97.691C104.696 98.6589 102.613 98.8269 101.025 98.2253C100.635 98.0912 100.277 97.8782 99.9735 97.5996C99.6699 97.321 99.4269 96.9828 99.2599 96.606C99.105 96.2657 99.0609 95.8854 99.1336 95.5187C99.2063 95.1519 99.3922 94.8173 99.6652 94.5618C99.9018 94.3281 100.22 94.1955 100.552 94.1919C100.885 94.1884 101.206 94.3142 101.447 94.5428C101.71 94.8113 101.903 95.1404 102.009 95.501C102.115 95.8617 102.131 96.2429 102.055 96.611C101.891 97.6353 101.324 98.5799 100.798 99.4548C100.196 100.452 99.516 101.399 98.7635 102.288C98.3417 102.787 99.0694 103.506 99.4956 103.002Z" fill="#F59E67"/>
<path d="M108.573 127.312C108.661 127.403 108.742 127.5 108.815 127.604L120.141 127.326L121.462 124.912L125.366 126.43L123.443 130.931C123.287 131.295 123.018 131.598 122.675 131.796C122.333 131.994 121.936 132.075 121.543 132.028L108.747 130.482C108.445 130.864 108.034 131.145 107.569 131.288C107.103 131.431 106.605 131.428 106.141 131.281C105.677 131.134 105.268 130.849 104.97 130.464C104.672 130.079 104.498 129.613 104.471 129.127C104.444 128.64 104.566 128.158 104.821 127.742C105.075 127.327 105.45 126.999 105.895 126.802C106.341 126.605 106.835 126.549 107.314 126.64C107.792 126.731 108.231 126.965 108.573 127.312Z" fill="#FFB7B7"/>
<path d="M145.493 196.094H141.769L139.998 181.73L145.494 181.731L145.493 196.094Z" fill="#FFB7B7"/>
<path d="M146.443 199.704L134.435 199.704V199.552C134.435 198.312 134.928 197.124 135.804 196.247C136.681 195.371 137.87 194.878 139.109 194.878H139.109L146.443 194.878L146.443 199.704Z" fill="#2F2E41"/>
<path d="M111.678 196.012L108.254 194.548L112.267 180.643L117.321 182.803L111.678 196.012Z" fill="#FFB7B7"/>
<path d="M111.134 199.704L100.092 194.987L100.151 194.847C100.638 193.707 101.558 192.808 102.708 192.346C103.859 191.884 105.145 191.898 106.285 192.385L106.285 192.385L113.03 195.266L111.134 199.704Z" fill="#2F2E41"/>
<path d="M127.392 130.424L127.123 134.788L134.995 135.63L143.231 136.511L140.806 129.885L127.392 130.424Z" fill="#FFB7B7"/>
<path d="M126.875 134.844L123.817 113.526L129.117 111.789L130.674 109.654L138.25 110.102L139.362 112.594L143.401 114.502L142.781 126.031L143.233 135.676L126.875 134.844Z" fill="#2F2E41"/>
<path d="M124.95 129.131L119.559 126.974L119.582 126.878C119.605 126.781 121.9 117.193 122.205 115.652C122.522 114.046 123.681 113.603 123.731 113.585L123.767 113.571L125.9 114.221L126.837 121.583L124.95 129.131Z" fill="#2F2E41"/>
<path d="M114.452 193.487L107.275 192.015L118.746 160.364L122.671 149.569C122.671 149.569 125.161 140.913 126.286 137.564L126.965 133.069L143.035 134.848C143.035 134.848 147.524 141.44 146.16 152.184L146.777 192.567L139.601 192.935L133.589 152.207L123.039 174.534C123.039 174.534 119.714 184.061 117.335 186.126L114.452 193.487Z" fill="#2F2E41"/>
<path d="M136.591 136.347C136.717 136.344 136.844 136.351 136.969 136.368L144.466 127.874L143.594 125.264L147.362 123.433L149.355 127.904C149.516 128.265 149.555 128.669 149.467 129.055C149.379 129.44 149.168 129.787 148.867 130.042L139.033 138.375C139.108 138.856 139.035 139.348 138.823 139.787C138.611 140.225 138.271 140.589 137.848 140.829C137.424 141.07 136.937 141.175 136.452 141.133C135.967 141.09 135.507 140.9 135.132 140.589C134.757 140.278 134.486 139.86 134.355 139.391C134.223 138.922 134.238 138.425 134.396 137.964C134.555 137.504 134.849 137.102 135.241 136.813C135.633 136.525 136.104 136.362 136.591 136.347Z" fill="#FFB7B7"/>
<path d="M143.868 128.701L140.74 121.344L141.96 116.22L143.274 114.56C143.37 114.519 143.474 114.498 143.579 114.499C143.684 114.5 143.787 114.522 143.882 114.565C144.367 114.761 144.78 115.358 145.109 116.343L148.04 124.691L143.868 128.701Z" fill="#2F2E41"/>
<path d="M127.642 106.928V101.382C127.642 99.4109 128.425 97.5206 129.818 96.1269C131.212 94.7332 133.102 93.9502 135.073 93.9502C137.045 93.9502 138.935 94.7332 140.329 96.1269C141.722 97.5206 142.505 99.4109 142.505 101.382V106.928C142.505 107.193 142.4 107.446 142.213 107.634C142.025 107.821 141.772 107.926 141.507 107.926H128.64C128.375 107.926 128.122 107.821 127.934 107.634C127.747 107.446 127.642 107.193 127.642 106.928Z" fill="#2F2E41"/>
<path d="M133.546 107.797C136.556 107.797 138.995 105.358 138.995 102.348C138.995 99.3391 136.556 96.8997 133.546 96.8997C130.537 96.8997 128.098 99.3391 128.098 102.348C128.098 105.358 130.537 107.797 133.546 107.797Z" fill="#FFB7B7"/>
<path d="M125.884 101.826C125.885 100.267 126.505 98.7727 127.607 97.6706C128.709 96.5685 130.204 95.9485 131.762 95.9468H132.872C134.43 95.9485 135.925 96.5685 137.027 97.6706C138.129 98.7727 138.749 100.267 138.751 101.826V101.937H136.406L135.607 99.6978L135.447 101.937H134.235L133.832 100.807L133.751 101.937H125.884L125.884 101.826Z" fill="#2F2E41"/>
<path d="M133.01 108.55C132.9 108.401 132.834 108.224 132.821 108.039C132.807 107.854 132.845 107.669 132.932 107.506C134.107 105.27 135.753 101.139 133.569 98.591L133.412 98.408H139.754V107.929L133.992 108.946C133.934 108.956 133.875 108.962 133.816 108.962C133.658 108.962 133.503 108.924 133.363 108.853C133.223 108.781 133.102 108.677 133.01 108.55Z" fill="#2F2E41"/>
<path d="M59.0299 192.957L62.3953 194.159L68.6361 181.751L63.669 179.976L59.0299 192.957Z" fill="#9F616A"/>
<path d="M57.0054 195.912L58.5641 191.551L65.1919 193.92C66.3113 194.321 67.2257 195.15 67.7346 196.225C68.2435 197.3 68.3052 198.533 67.9063 199.653L67.8572 199.79L57.0054 195.912Z" fill="#2F2E41"/>
<path d="M80.9146 196.285L84.4885 196.285L86.1889 182.5L80.914 182.5L80.9146 196.285Z" fill="#9F616A"/>
<path d="M80.0029 195.119L87.0413 195.118H87.0416C87.6306 195.118 88.2139 195.234 88.7581 195.46C89.3023 195.685 89.7968 196.016 90.2133 196.432C90.6298 196.849 90.9602 197.343 91.1856 197.887C91.4111 198.431 91.5271 199.015 91.5271 199.604V199.75L80.0031 199.75L80.0029 195.119Z" fill="#2F2E41"/>
<path d="M72.7695 108.215L74.3238 105.144C74.3238 105.144 80.1141 106.594 80.6405 109.95L72.7695 108.215Z" fill="#F1F1F1"/>
<path d="M66.3562 143.333L70.583 166.92L59.3595 186.769L66.0645 189.393L77.4339 170.152L78.8914 164.905L79.7659 192.308L85.813 192.124L88.5853 166.537L84.1386 142.75L66.3562 143.333Z" fill="#2F2E41"/>
<path d="M74.38 148.909C68.1703 148.909 64.2277 147.721 64.1394 147.702L63.9964 147.672L67.2308 132.676L67.3764 118.844C67.3764 112.982 71.2343 108.66 71.7697 108.262C71.8598 107.906 72.0265 107.574 72.2582 107.289C72.4898 107.004 72.7809 106.774 73.1109 106.613C74.3978 106.029 75.9703 106.73 76.0365 106.76L80.7564 108.53L80.7786 108.595C80.8354 108.763 87.0522 129.172 87.0522 129.172C87.0522 129.172 86.6759 147.004 86.5448 147.588C86.5448 147.588 77.8302 148.909 74.38 148.909Z" fill="#3F3D56"/>
<path d="M79.1514 104.177C82.6746 104.177 85.5307 101.32 85.5307 97.7972C85.5307 94.2741 82.6746 91.418 79.1514 91.418C75.6283 91.418 72.7722 94.2741 72.7722 97.7972C72.7722 101.32 75.6283 104.177 79.1514 104.177Z" fill="#9F616A"/>
<path opacity="0.2" d="M72.0387 119.975L83.1992 135.546L84.8473 128.275L72.0387 119.975Z" fill="black"/>
<path d="M107.029 130.57C106.715 130.818 106.351 130.995 105.961 131.087C105.572 131.179 105.167 131.185 104.775 131.103C104.383 131.022 104.014 130.856 103.693 130.617C103.372 130.377 103.108 130.07 102.919 129.718L93.3126 131.255L95.3937 126.648L104.197 125.894C104.81 125.616 105.505 125.571 106.148 125.77C106.792 125.969 107.341 126.398 107.69 126.974C108.039 127.55 108.164 128.235 108.043 128.897C107.921 129.56 107.56 130.155 107.029 130.57Z" fill="#9F616A"/>
<path d="M95.8883 126.386L99.3399 126.047L100.296 130.862L95.9532 130.939L95.8883 126.386Z" fill="#F1F1F1"/>
<path d="M98.7178 132.54L81.8133 131.035L73.2776 117.46L73.2513 117.34C73.0091 116.231 73.1787 115.072 73.7285 114.079C74.2783 113.086 75.1708 112.327 76.2392 111.944C77.3076 111.56 78.479 111.579 79.5346 111.996C80.5902 112.413 81.4579 113.201 81.9757 114.211L86.9864 123.984L97.0988 125.513L98.7178 132.54Z" fill="#3F3D56"/>
<path d="M73.7177 103.336L79.0125 103.526C79.3353 103.538 80.2112 100.055 80.3259 99.3319C80.4165 98.8615 80.6753 98.4402 81.0539 98.1466C81.4324 97.853 81.9049 97.7073 82.3831 97.7366C82.7794 97.774 83.7789 97.0335 84.8102 96.1567C86.7683 94.4921 86.6664 91.3657 84.5155 89.959C84.4567 89.9206 84.399 89.8855 84.3424 89.8537C82.9855 89.0943 81.3982 88.8392 79.8434 88.8198C78.4339 88.8021 76.9844 88.9796 75.7426 89.6467C73.5164 90.8428 72.3317 93.4565 72.2276 95.9815C72.1235 98.5065 72.933 100.975 73.8516 103.33" fill="#2F2E41"/>
<path d="M206.449 200H0.277261C0.203726 200 0.133204 199.971 0.0812075 199.919C0.0292111 199.867 0 199.796 0 199.723C0 199.649 0.0292111 199.579 0.0812075 199.527C0.133204 199.475 0.203726 199.446 0.277261 199.446H206.559C206.633 199.446 206.703 199.475 206.755 199.527C206.807 199.579 206.836 199.649 206.836 199.723C206.836 199.876 206.602 200 206.449 200Z" fill="#CBCBCB"/>
</g>
<defs>
<clipPath id="clip0_2056_329">
<rect width="207" height="200" fill="white"/>
</clipPath>
</defs>
</svg>
