<svg width="262" height="191" viewBox="0 0 262 191" fill="none" xmlns="http://www.w3.org/2000/svg">
<path opacity="0.1" d="M259.958 185.829C259.958 187.715 253.463 189.482 242.127 191H27.7252C18.186 191.02 8.81155 188.514 0.554966 183.737L0.427979 183.665C3.68553 182.478 9.56569 181.371 17.5688 180.371L17.9277 180.327C21.5165 179.888 25.5277 179.472 29.9116 179.077C30.022 179.077 30.1352 179.06 30.2456 179.046C33.724 178.737 37.4242 178.447 41.3462 178.177C41.4704 178.177 41.5919 178.155 41.7161 178.149C43.2289 178.041 44.773 177.938 46.3484 177.84L46.9558 177.801C58.4262 177.089 71.4647 176.52 85.6047 176.145H85.6213C87.6016 176.09 89.6031 176.041 91.6257 175.999C93.8747 175.945 96.1513 175.898 98.4555 175.858C100.214 175.819 101.995 175.792 103.781 175.764H103.822C111.88 175.643 120.207 175.582 128.72 175.582C149.773 175.582 169.672 175.966 187.304 176.656H187.354C190.065 176.761 192.726 176.877 195.321 176.995L197.529 177.1C200.457 177.24 203.31 177.39 206.087 177.55C238.746 179.408 259.958 182.425 259.958 185.829Z" fill="#F59E67"/>
<g opacity="0.2">
<path d="M153.801 174.315C153.792 174.613 153.758 174.909 153.699 175.201C151.777 174.895 149.845 174.619 147.901 174.373C147.901 174.295 147.901 174.215 147.901 174.135C147.919 173.308 148.157 172.499 148.591 171.794C149.16 170.894 150.024 170.331 150.977 170.362C151.929 170.392 152.754 171.008 153.265 171.938C153.651 172.669 153.836 173.489 153.801 174.315Z" fill="#3F3D56"/>
<path d="M153.959 169.597C154.027 167.462 152.76 165.69 151.129 165.638C149.499 165.587 148.122 167.276 148.055 169.411C147.987 171.546 149.254 173.318 150.885 173.37C152.515 173.421 153.892 171.732 153.959 169.597Z" fill="#3F3D56"/>
<path d="M154.11 164.871C154.177 162.736 152.91 160.963 151.28 160.912C149.649 160.86 148.273 162.549 148.205 164.684C148.138 166.819 149.405 168.592 151.035 168.643C152.666 168.695 154.043 167.006 154.11 164.871Z" fill="#3F3D56"/>
<path d="M154.258 160.145C154.325 158.01 153.058 156.237 151.428 156.186C149.797 156.134 148.42 157.823 148.353 159.958C148.286 162.093 149.553 163.866 151.183 163.917C152.814 163.969 154.19 162.28 154.258 160.145Z" fill="#3F3D56"/>
<path d="M154.406 155.418C154.473 153.283 153.206 151.511 151.575 151.459C149.945 151.408 148.568 153.097 148.501 155.232C148.433 157.367 149.7 159.139 151.331 159.191C152.962 159.242 154.338 157.553 154.406 155.418Z" fill="#3F3D56"/>
<path d="M141.405 122.625C141.017 122.098 140.666 121.545 140.356 120.968L148.158 119.938L139.76 119.737C139.011 117.959 138.632 116.048 138.646 114.118C138.661 112.189 139.069 110.284 139.846 108.518L150.921 114.715L140.776 106.754C141.799 105.098 143.153 103.672 144.753 102.563C146.352 101.455 148.163 100.688 150.073 100.31C151.982 99.933 153.948 99.9535 155.849 100.37C157.75 100.787 159.545 101.592 161.121 102.733C162.697 103.875 164.021 105.329 165.01 107.005C165.999 108.681 166.631 110.544 166.868 112.475C167.105 114.407 166.941 116.367 166.387 118.232C165.832 120.098 164.899 121.829 163.645 123.317C164.25 124.136 164.764 125.018 165.177 125.948L154.938 130.862L165.796 127.596C166.479 129.853 166.59 132.244 166.116 134.553C165.643 136.863 164.601 139.017 163.085 140.823C164.661 142.961 165.604 145.501 165.805 148.15C166.006 150.799 165.458 153.452 164.222 155.804C162.987 158.156 161.115 160.113 158.819 161.452C156.524 162.79 153.899 163.455 151.243 163.371C148.587 163.288 146.009 162.458 143.802 160.978C141.596 159.498 139.851 157.427 138.766 155.001C137.681 152.576 137.301 149.894 137.669 147.263C138.036 144.631 139.137 142.157 140.845 140.121C138.962 137.565 137.992 134.451 138.092 131.277C138.193 128.104 139.356 125.057 141.397 122.625H141.405Z" fill="#F59E67"/>
<path opacity="0.1" d="M166.398 132.171C166.301 135.346 165.133 138.395 163.085 140.823C164.661 142.961 165.604 145.501 165.805 148.15C166.006 150.799 165.458 153.452 164.222 155.804C162.987 158.156 161.115 160.113 158.819 161.452C156.524 162.79 153.899 163.455 151.243 163.371C148.587 163.288 146.009 162.458 143.802 160.978C141.596 159.498 139.851 157.427 138.766 155.001C137.681 152.576 137.301 149.894 137.669 147.263C138.036 144.631 139.137 142.157 140.845 140.121C139.031 137.656 166.447 130.583 166.398 132.171Z" fill="black"/>
</g>
<g opacity="0.2">
<path d="M111.839 174.315C111.83 174.613 111.796 174.909 111.737 175.201C109.816 174.895 107.883 174.619 105.94 174.373C105.94 174.295 105.94 174.215 105.94 174.135C105.958 173.308 106.196 172.499 106.63 171.794C107.198 170.894 108.063 170.331 109.015 170.362C109.967 170.392 110.793 171.008 111.303 171.938C111.69 172.669 111.875 173.489 111.839 174.315Z" fill="#3F3D56"/>
<path d="M111.995 169.598C112.062 167.463 110.795 165.691 109.164 165.639C107.534 165.588 106.157 167.277 106.09 169.412C106.022 171.547 107.289 173.319 108.92 173.371C110.551 173.422 111.927 171.733 111.995 169.598Z" fill="#3F3D56"/>
<path d="M112.145 164.872C112.213 162.737 110.946 160.965 109.315 160.913C107.684 160.862 106.308 162.551 106.24 164.686C106.173 166.821 107.44 168.593 109.071 168.645C110.701 168.696 112.078 167.007 112.145 164.872Z" fill="#3F3D56"/>
<path d="M112.293 160.146C112.361 158.011 111.093 156.238 109.463 156.187C107.832 156.135 106.456 157.824 106.388 159.959C106.321 162.094 107.588 163.867 109.219 163.918C110.849 163.97 112.226 162.281 112.293 160.146Z" fill="#3F3D56"/>
<path d="M112.441 155.42C112.508 153.285 111.241 151.512 109.611 151.46C107.98 151.409 106.604 153.098 106.536 155.233C106.469 157.368 107.736 159.14 109.366 159.192C110.997 159.243 112.373 157.554 112.441 155.42Z" fill="#3F3D56"/>
<path d="M99.4438 122.625C99.055 122.098 98.7045 121.545 98.3948 120.968L106.196 119.938L97.7985 119.737C97.049 117.959 96.6701 116.048 96.6848 114.118C96.6995 112.189 97.1076 110.284 97.884 108.518L108.96 114.715L98.8144 106.754C99.8378 105.098 101.192 103.672 102.791 102.563C104.391 101.455 106.202 100.688 108.111 100.31C110.02 99.933 111.987 99.9535 113.888 100.37C115.789 100.787 117.583 101.592 119.159 102.733C120.736 103.875 122.059 105.329 123.048 107.005C124.037 108.681 124.67 110.544 124.907 112.475C125.144 114.407 124.98 116.367 124.425 118.232C123.87 120.098 122.937 121.829 121.684 123.317C122.288 124.136 122.802 125.018 123.216 125.948L112.976 130.862L123.834 127.596C124.518 129.853 124.628 132.244 124.155 134.553C123.681 136.863 122.639 139.017 121.123 140.823C122.699 142.961 123.642 145.501 123.843 148.15C124.044 150.799 123.496 153.452 122.261 155.804C121.025 158.156 119.153 160.113 116.858 161.452C114.562 162.79 111.937 163.455 109.281 163.371C106.626 163.288 104.047 162.458 101.841 160.978C99.6343 159.498 97.889 157.427 96.8043 155.001C95.7196 152.576 95.3393 149.894 95.707 147.263C96.0747 144.631 97.1754 142.157 98.8834 140.121C97.0001 137.565 96.0306 134.451 96.1308 131.277C96.2309 128.104 97.3948 125.057 99.4355 122.625H99.4438Z" fill="#F59E67"/>
<path opacity="0.1" d="M124.436 132.171C124.339 135.346 123.172 138.395 121.123 140.823C122.699 142.961 123.642 145.501 123.843 148.15C124.044 150.799 123.496 153.452 122.261 155.804C121.025 158.156 119.153 160.113 116.858 161.452C114.562 162.79 111.937 163.455 109.281 163.371C106.626 163.288 104.047 162.458 101.841 160.978C99.6343 159.498 97.889 157.427 96.8043 155.001C95.7196 152.576 95.3393 149.894 95.707 147.263C96.0747 144.631 97.1754 142.157 98.8834 140.121C97.0696 137.656 124.486 130.583 124.436 132.171Z" fill="black"/>
</g>
<g opacity="0.2">
<path d="M226.461 177.335C226.44 177.899 226.372 178.46 226.259 179.013C222.56 178.422 218.834 177.894 215.081 177.429C215.081 177.28 215.081 177.128 215.081 176.973C215.116 175.379 215.576 173.823 216.412 172.465C217.516 170.734 219.173 169.649 221.003 169.704C222.833 169.76 224.426 170.949 225.42 172.741C226.169 174.152 226.529 175.738 226.461 177.335Z" fill="#3F3D56"/>
<path d="M226.761 168.246C226.891 164.134 224.45 160.721 221.31 160.622C218.169 160.522 215.517 163.775 215.387 167.886C215.258 171.998 217.698 175.411 220.839 175.511C223.98 175.61 226.631 172.357 226.761 168.246Z" fill="#3F3D56"/>
<path d="M227.048 159.147C227.178 155.035 224.737 151.622 221.596 151.522C218.456 151.423 215.804 154.676 215.674 158.787C215.544 162.899 217.985 166.312 221.126 166.411C224.267 166.511 226.918 163.258 227.048 159.147Z" fill="#3F3D56"/>
<path d="M227.338 150.047C227.468 145.936 225.027 142.523 221.886 142.423C218.745 142.324 216.094 145.577 215.964 149.688C215.834 153.8 218.275 157.213 221.416 157.312C224.556 157.412 227.208 154.159 227.338 150.047Z" fill="#3F3D56"/>
<path d="M227.301 140.534C227.424 136.421 224.977 133.01 221.835 132.915C218.692 132.821 216.045 136.079 215.922 140.193C215.798 144.306 218.246 147.718 221.388 147.812C224.53 147.906 227.178 144.648 227.301 140.534Z" fill="#3F3D56"/>
<path d="M202.595 77.8248C201.85 76.8113 201.176 75.7478 200.577 74.6418L215.595 72.6596L199.431 72.2704C197.988 68.8485 197.257 65.1681 197.285 61.4542C197.312 57.7404 198.097 54.0712 199.591 50.6711L220.917 62.5998L201.389 47.2728C203.363 44.0936 205.971 41.3552 209.051 39.2283C212.13 37.1013 215.614 35.6313 219.287 34.91C222.959 34.1886 226.74 34.2313 230.395 35.0355C234.05 35.8396 237.501 37.3879 240.531 39.584C243.562 41.78 246.107 44.5766 248.01 47.7995C249.912 51.0225 251.13 54.6027 251.588 58.317C252.046 62.0314 251.734 65.8002 250.671 69.3887C249.609 72.9772 247.819 76.3084 245.413 79.1747C246.576 80.7523 247.565 82.4507 248.364 84.2405L228.65 93.7067L249.551 87.4125C250.868 91.7506 251.082 96.3488 250.175 100.791C249.267 105.233 247.266 109.378 244.352 112.852C247.387 116.969 249.201 121.857 249.588 126.957C249.975 132.057 248.918 137.163 246.54 141.691C244.162 146.219 240.557 149.987 236.139 152.563C231.72 155.139 226.666 156.42 221.554 156.258C216.442 156.097 211.478 154.501 207.231 151.651C202.983 148.802 199.623 144.815 197.535 140.146C195.447 135.477 194.714 130.315 195.422 125.25C196.129 120.184 198.247 115.42 201.535 111.502C197.911 106.581 196.046 100.586 196.238 94.4785C196.43 88.3708 198.669 82.5048 202.595 77.822V77.8248Z" fill="#F59E67"/>
<path opacity="0.1" d="M250.713 96.1996C250.532 102.309 248.295 108.178 244.363 112.857C247.398 116.975 249.212 121.863 249.599 126.963C249.986 132.063 248.929 137.169 246.551 141.697C244.173 146.225 240.568 149.992 236.15 152.568C231.731 155.144 226.677 156.425 221.565 156.264C216.453 156.103 211.489 154.506 207.242 151.657C202.994 148.808 199.634 144.821 197.546 140.152C195.458 135.483 194.725 130.321 195.433 125.255C196.14 120.19 198.258 115.426 201.546 111.507C198.029 106.756 250.81 93.1436 250.713 96.1996Z" fill="black"/>
</g>
<path d="M9.56836 177.821L12.4643 177.812H16.5473L21.7096 93.9497L72.8339 8.63763L70.6116 6.25244V0.212158L15.3215 91.973L9.56836 177.821Z" fill="#F1C0C0"/>
<path opacity="0.1" d="M12.7736 177.812H16.5474L21.7098 93.9497L72.834 8.63763L70.6117 6.25244L17.878 92.6715L12.7736 177.812Z" fill="black"/>
<path d="M1.03528 178.519L133.505 188.656L133.618 188.664L261.819 180.78L261.916 180.775V175.361L120.654 172.769L2.79933 172.656H1.938L1.84414 173.263L1.03528 178.519Z" fill="#F1C0C0"/>
<path opacity="0.1" d="M1.03528 178.519L133.505 188.656L133.618 188.664L261.819 180.78L261.916 180.675V175.474H261.802L133.505 179.759L2.79933 172.656H2.78L2.54811 172.807L1.84414 173.263L1.03528 178.519Z" fill="black"/>
<path opacity="0.1" d="M1.03528 178.519L133.505 188.656V179.759L2.54811 172.807L1.84414 173.263L1.03528 178.519Z" fill="black"/>
<path d="M70.5951 6.13923L128.996 68.8223L127.191 179.082L132.152 179.681L132.235 179.692H137.196L137.789 73.5568L247.146 110.086L248.99 175.126L252.982 175.573L254.335 175.725L251.204 105.575L136.886 65.4405L74.2032 0.275635H70.5951V6.13923Z" fill="#F1C0C0"/>
<path opacity="0.1" d="M137.339 71.5278L137.789 73.5569L247.146 110.086L248.99 175.126L252.982 175.574L249.852 108.733L137.339 71.5278Z" fill="black"/>
<path opacity="0.1" d="M70.5951 6.13923L128.996 68.8223L127.191 179.082L132.152 179.681L133.505 65.2141L70.5951 0.275635V6.13923Z" fill="black"/>
<path d="M137.552 115.778L177.661 123.676L177.675 123.679L247.925 137.518L251.141 136.229L251.13 136.002L250.92 131.516L137.593 108.617L137.552 115.778Z" fill="#F1C0C0"/>
<path opacity="0.1" d="M177.675 123.679L247.925 137.518L251.141 136.229L251.13 136.002L177.675 123.679Z" fill="black"/>
<path d="M180.361 87.7769L181.446 147.501L182.006 178.141L186.945 177.975L190.053 177.87L189.087 88.6409L186.945 87.9287L186.476 87.7769H180.361Z" fill="#F1C0C0"/>
<path opacity="0.1" d="M180.405 87.7632V87.777L181.446 147.501L182.006 178.141L186.945 177.975V87.7632H180.405Z" fill="black"/>
<path d="M102.999 103.029C103.289 103.187 103.566 103.367 103.828 103.568C104.137 103.838 104.415 104.143 104.656 104.476C105.84 106.008 106.933 107.789 106.817 109.721C106.82 110.002 106.767 110.281 106.661 110.542C106.555 110.802 106.399 111.039 106.202 111.24C105.713 111.656 105.012 111.676 104.372 111.676C103.676 111.676 102.944 111.676 102.342 111.317C101.741 110.958 101.238 110.259 100.526 110.276C100.425 110.293 100.323 110.293 100.222 110.276C99.9766 110.196 99.9269 109.873 99.7668 109.669C99.4907 109.302 98.9082 109.393 98.4748 109.553C98.0414 109.713 97.561 109.953 97.1331 109.768C96.8847 109.637 96.6817 109.434 96.5506 109.186C95.5264 107.529 95.3083 105.539 95.1151 103.615C94.9964 102.444 94.0909 98.4522 96.5893 99.3605C97.6935 99.758 98.726 100.553 99.7309 101.136L102.999 103.029Z" fill="#3F3D56"/>
<path d="M100.531 103.424C100.755 103.585 101.025 103.666 101.3 103.655C101.574 103.644 101.837 103.541 102.047 103.364C102.458 102.992 102.72 102.484 102.784 101.934C103.06 101.848 103.201 102.21 103.378 102.43C103.687 102.806 104.316 102.8 104.598 103.201C104.794 103.477 104.75 103.86 104.888 104.172C105.067 104.575 105.512 104.785 105.815 105.111C106.102 105.467 106.309 105.88 106.423 106.323L106.875 107.681C107.092 108.246 107.231 108.838 107.289 109.44C107.318 109.741 107.286 110.044 107.196 110.333C107.106 110.622 106.96 110.89 106.765 111.121C106.158 111.775 105.161 111.844 104.28 111.825C103.986 111.831 103.693 111.797 103.408 111.723C102.627 111.48 102.127 110.693 101.92 109.901C101.713 109.108 101.735 108.277 101.614 107.466C101.482 106.669 101.25 105.891 100.923 105.152C100.68 104.578 100.012 103.722 100.023 103.112C100.222 103.112 100.366 103.295 100.531 103.424Z" fill="#3F3D56"/>
<path d="M101.522 100.628C101.393 100.236 101.318 99.8281 101.299 99.4159C101.299 98.5877 101.677 97.8092 102.058 97.0693L98.9026 97.4972C98.5217 97.5497 98.0965 97.627 97.8812 97.9445C97.7994 98.1018 97.7567 98.2765 97.7567 98.4538C97.7567 98.6311 97.7994 98.8058 97.8812 98.9631C98.0394 99.2781 98.1652 99.6083 98.2567 99.9487C98.2638 100.247 98.298 100.543 98.3588 100.835C98.457 101.049 98.5947 101.243 98.7646 101.406C99.6673 102.406 100.344 103.584 101.017 104.752C100.998 104.719 102.919 103.231 102.842 102.745C102.798 102.469 102.243 102.138 102.066 101.873C101.822 101.488 101.639 101.068 101.522 100.628Z" fill="#BE6F72"/>
<path d="M128.577 89.8418V92.561L82.0131 101.644L79.5976 103.107H71.2632V101.575L117.013 90.5209L128.577 89.8418Z" fill="#F1C0C0"/>
<path opacity="0.1" d="M128.577 92.561L82.0131 101.644L79.5976 103.107H71.2632L117.352 93.2429L128.577 92.561Z" fill="black"/>
<path d="M91.1922 167.035C90.6734 166.407 89.9572 165.972 89.1602 165.803C88.3632 165.634 87.5323 165.739 86.8028 166.102C86.6467 166.175 86.509 166.283 86.3998 166.417C86.1237 166.803 86.3004 167.336 86.3252 167.813C86.3887 168.978 85.4611 169.925 84.6274 170.74C84.1802 171.176 83.7247 171.642 83.5232 172.236C83.3216 172.83 83.4707 173.583 84.0118 173.892C84.2479 174.011 84.5049 174.082 84.7682 174.102C85.6506 174.274 86.5554 174.299 87.446 174.177C88.3267 174.008 89.1908 173.509 89.5717 172.697C89.6452 172.477 89.7669 172.276 89.9279 172.109C90.4137 171.725 91.1591 172.175 91.7112 171.902C92.1667 171.676 92.1861 171.319 92.1916 170.85C92.2082 169.553 92.0149 168.084 91.1922 167.035Z" fill="#F59E67"/>
<path d="M97.8177 166.985C98.1573 167.88 98.2042 168.854 98.2484 169.809C98.2732 170.361 98.2898 170.952 97.9917 171.419C97.6935 171.885 97.111 172.131 96.5534 172.247C95.4022 172.484 94.0688 172.261 93.3262 171.347C92.7575 170.649 92.6388 169.691 92.7437 168.785C92.832 168.043 93.0197 167.173 92.4869 166.646C92.3489 166.505 92.1695 166.405 92.0425 166.254C91.7664 165.917 91.8106 165.409 91.9597 164.995C92.1538 164.599 92.2993 164.181 92.3931 163.75C92.4152 163.545 96.131 163.893 96.4733 164.062C96.9398 164.291 96.8681 164.675 97.0089 165.138C97.2049 165.784 97.5803 166.367 97.8177 166.985Z" fill="#F59E67"/>
<path d="M98.4996 127.326C99.2284 127.798 99.51 128.725 99.6232 129.587C99.9351 131.947 99.3885 134.332 99.3471 136.715C99.3085 140.052 100.275 143.451 99.4492 146.683C98.9551 148.616 99.3747 150.824 98.9109 152.776C98.7729 153.356 98.5189 153.902 98.3864 154.482C98.1103 155.738 98.4002 157.052 98.7895 158.281C98.9137 158.612 98.9927 158.958 99.0241 159.311C99.0054 159.853 98.8678 160.384 98.6211 160.868L96.9647 164.785C96.7797 165.224 96.0509 165.296 95.5844 165.354C94.7065 165.458 93.7264 165.533 93.028 164.989C92.3296 164.445 92.1612 163.534 92.0535 162.684C91.847 161.052 91.7548 159.407 91.7774 157.762C91.8078 157.332 91.7696 156.901 91.6643 156.484C91.5124 156.012 91.1784 155.603 91.0873 155.103C90.9713 154.457 91.2998 153.822 91.4213 153.171C91.5046 152.576 91.4953 151.971 91.3937 151.379C91.286 150.496 91.1618 149.612 91.021 148.735C90.8223 147.506 91.1066 146.294 91.2971 145.063C91.4765 143.906 91.2474 142.727 91.021 141.579C91.0406 142.511 90.9243 143.441 90.6759 144.34C90.5296 144.779 90.3198 145.198 90.1928 145.645C89.6269 147.652 90.8333 149.759 90.6621 151.837C90.5821 152.809 90.2011 153.77 90.3088 154.728C90.3833 155.429 90.7091 156.072 90.9327 156.74C91.1563 157.408 91.2722 158.173 90.9327 158.797C90.0355 160.492 90.7063 162.797 91.5097 164.536C91.6727 164.845 91.8147 165.164 91.9348 165.492C92.1722 166.276 91.9734 167.118 92.0369 167.935C91.8057 167.973 91.5689 167.957 91.3446 167.89C91.1202 167.822 90.9142 167.705 90.7422 167.546C90.6207 167.419 90.5213 167.269 90.4026 167.137C90.071 166.821 89.6783 166.576 89.2487 166.416C88.9964 166.275 88.7091 166.209 88.4205 166.226C88.1171 166.311 87.8442 166.48 87.6337 166.715C87.3607 166.955 87.071 167.175 86.7669 167.374C86.6373 167.474 86.4859 167.541 86.3252 167.57C86.2444 167.583 86.1617 167.57 86.0888 167.532C86.016 167.495 85.9567 167.436 85.9194 167.363C85.9021 167.317 85.8919 167.269 85.889 167.22C85.7865 166.386 85.7321 165.547 85.7261 164.708C85.7261 163.264 83.998 162.27 83.7799 160.843C83.6059 159.691 83.9289 158.518 83.8213 157.359C83.7688 156.762 83.6032 156.177 83.6142 155.581C83.6142 155.194 83.7026 154.816 83.7329 154.432C83.7582 154.007 83.7518 153.579 83.7136 153.154L83.628 151.821C83.5452 150.504 83.4541 149.16 82.9351 147.956C82.3197 146.551 81.9553 145.048 81.8585 143.517C81.8032 142.551 81.8391 141.584 81.7287 140.615C81.6293 139.74 81.4085 138.871 81.472 137.993C81.5244 137.314 81.748 136.657 81.8005 135.978C81.9082 134.672 81.4112 133.402 81.022 132.151C80.6327 130.901 80.3456 129.515 80.8564 128.309C80.9293 128.111 81.0508 127.934 81.2097 127.795C81.4055 127.665 81.6284 127.582 81.8612 127.552C86.5978 126.557 91.4527 126.248 96.2773 126.633C97.0638 126.677 97.8271 126.915 98.4996 127.326Z" fill="#3F3D56"/>
<path d="M82.8274 98.0052C85.27 98.0052 87.25 96.0252 87.25 93.5827C87.25 91.1402 85.27 89.1602 82.8274 89.1602C80.3849 89.1602 78.4049 91.1402 78.4049 93.5827C78.4049 96.0252 80.3849 98.0052 82.8274 98.0052Z" fill="#BE6F72"/>
<path d="M81.9717 99.1067C82.0353 99.3595 82.0353 99.6241 81.9717 99.8769C81.9022 100.054 81.8042 100.218 81.6818 100.363C81.2537 100.915 80.78 101.43 80.2656 101.903C80.5277 102.488 80.9994 102.954 81.588 103.209C82.1723 103.458 82.7853 103.633 83.4128 103.731C83.726 103.813 84.0519 103.836 84.3735 103.797C84.6698 103.723 84.9503 103.595 85.2016 103.422L87.6586 101.95C88.0293 101.749 88.3726 101.502 88.6801 101.213C89.1307 100.75 89.3857 100.131 89.3923 99.4849C89.4037 99.3691 89.3723 99.2532 89.304 99.1591C89.2098 99.0771 89.0917 99.0278 88.9672 99.0183C88.1031 98.8278 87.4212 98.1266 87.0347 97.3316C86.6853 96.5166 86.4592 95.6541 86.3639 94.7725L83.744 96.1528C83.3548 96.3598 82.9683 96.5669 82.5652 96.7463C82.3085 96.8623 81.7895 96.9589 81.6073 97.1935C81.2595 97.627 81.8806 98.5849 81.9717 99.1067Z" fill="#BE6F72"/>
<path d="M80.2821 101.1C79.9091 101.406 79.6179 101.799 79.4346 102.246C79.2634 102.798 79.4346 103.38 79.5892 103.927C80.3137 106.257 80.8673 108.636 81.2456 111.046C81.4775 112.703 81.5631 114.384 81.6762 116.06C81.9081 119.477 82.2449 124.927 82.6949 128.323C84.3513 128.397 85.9663 127.914 87.6089 127.737C90.6787 127.412 93.8396 128.157 96.846 127.461C96.1171 124.582 95.3883 119.665 94.6595 116.789C94.337 115.655 94.1135 114.496 93.9915 113.324C93.928 112.482 93.9666 111.637 93.9777 110.79C94.0025 109.133 93.9114 107.477 93.8203 105.821C93.7154 103.888 93.6105 101.956 93.1522 100.065C93.1203 99.8237 93.0074 99.6008 92.832 99.4325C92.5559 99.2309 92.197 99.3027 91.8685 99.3469C90.8626 99.4746 89.8445 99.2334 89.003 98.6678C88.6386 98.4193 88.1499 98.1156 87.8104 98.3917C87.6655 98.5582 87.5699 98.7619 87.5343 98.9797C87.3841 99.3703 87.1522 99.7242 86.8542 100.018C86.5561 100.312 86.1988 100.538 85.8062 100.683C85.0194 100.968 84.1955 101.137 83.3602 101.185C83.1046 101.24 82.838 101.21 82.6011 101.1C82.209 100.86 82.1814 99.9956 81.6873 99.9377C81.2539 99.888 80.5747 100.821 80.2821 101.1Z" fill="#3F3D56"/>
<path d="M86.8139 107.841C85.7952 106.867 85.348 105.453 84.6054 104.252C84.0997 103.445 83.4537 102.734 82.6978 102.154C82.3178 101.903 81.9693 101.608 81.6598 101.274C81.3975 100.951 81.1988 100.52 80.8012 100.396C80.637 100.36 80.4665 100.365 80.3044 100.409C80.1423 100.454 79.9936 100.538 79.8709 100.652C79.6275 100.884 79.3971 101.13 79.1807 101.387C78.0102 102.599 75.9535 102.767 75.026 104.17C74.7757 104.467 74.6056 104.823 74.5318 105.205C74.2648 107.246 74.7925 109.312 76.006 110.975C76.2409 111.36 76.6017 111.652 77.0274 111.803C76.9697 112.317 77.0379 112.839 77.2262 113.321C77.7373 115.068 78.3654 116.779 79.1062 118.442C78.9291 119.093 78.8054 119.756 78.7363 120.427C78.543 122.114 78.7225 123.825 78.5403 125.515C78.3912 126.895 77.9881 128.24 77.9743 129.623C77.9743 129.843 77.9936 130.106 78.1841 130.219C78.2855 130.271 78.3989 130.295 78.5127 130.288L81.9082 130.39C83.8793 130.448 85.8698 130.506 87.8105 130.142C88.0689 130.103 88.3196 130.024 88.5531 129.907C89.2101 129.54 89.4282 128.712 89.5331 127.975C89.6701 127.018 89.7246 126.052 89.696 125.087C90.1073 126.387 90.596 127.732 91.8383 128.295C92.4953 128.593 93.2462 128.571 93.9667 128.552C95.5197 128.482 97.0674 128.323 98.6018 128.074C98.6964 128.086 98.7924 128.075 98.8821 128.043C98.9719 128.011 99.0529 127.958 99.1186 127.889C99.1844 127.82 99.233 127.737 99.2607 127.646C99.2885 127.555 99.2944 127.458 99.2782 127.364L99.2947 125.857C99.3279 122.796 98.5687 119.869 98.2733 116.822C98.1794 115.861 98.1877 114.889 97.9531 113.948C97.8565 113.553 97.7157 113.166 97.6301 112.769C97.5564 112.38 97.5103 111.986 97.492 111.59L97.2767 108.553C97.1746 107.148 97.0283 105.793 96.9206 104.39C96.8614 103.025 96.6635 101.669 96.3298 100.343C96.0896 99.5151 95.59 98.5765 94.7259 98.4743C94.2649 98.4219 93.8176 98.6234 93.3787 98.7642C92.2998 99.1039 91.1419 99.099 90.0659 98.7504C89.7335 98.6191 89.387 98.5265 89.0335 98.4743C88.8555 98.4501 88.6742 98.4736 88.5083 98.5425C88.3424 98.6114 88.1978 98.7232 88.0893 98.8663C87.9822 99.082 87.9318 99.3215 87.943 99.562C87.8132 102.32 87.5731 105.161 86.8139 107.841Z" fill="#F59E67"/>
<path d="M82.3719 107.924C81.0993 106.582 79.7935 105.216 78.1537 104.363C77.5077 104.026 76.7733 103.772 76.0583 103.899C75.3433 104.026 74.678 104.647 74.7111 105.373C74.7332 105.823 75.0065 106.221 75.0921 106.662C75.1915 107.159 75.0479 107.689 75.2025 108.17C75.3282 108.486 75.5159 108.774 75.7547 109.017L77.7092 111.333C78.5374 112.3 79.3656 113.28 80.4312 113.948C81.4968 114.616 82.8771 114.928 84.0476 114.453C84.8804 114.066 85.5729 113.43 86.0298 112.634C86.5156 111.861 86.858 111.016 87.3135 110.218C88.0224 108.943 88.9579 107.809 90.0741 106.869C89.4999 106.72 88.7794 106.511 88.4177 106.041C88.3148 105.892 88.2269 105.733 88.1555 105.566L87.7082 104.6C87.5561 104.592 87.4041 104.616 87.2615 104.67C87.119 104.723 86.9891 104.806 86.88 104.912C86.6883 105.134 86.4826 105.343 86.2644 105.539C85.8752 105.831 85.3479 105.912 84.9945 106.246C84.8578 106.389 84.734 106.544 84.6246 106.709C84.3573 107.061 84.0181 107.351 83.6296 107.56C83.2411 107.77 82.8123 107.894 82.3719 107.924Z" fill="#3F3D56"/>
<path d="M90.1763 102.152C91.1343 100.404 91.0901 98.3088 91.3634 96.3349C91.393 95.8122 91.5765 95.3099 91.8907 94.8911C92.4428 94.2672 93.4173 94.2589 94.251 94.339C94.4967 94.3666 94.8032 94.4825 94.7894 94.7282C94.77 94.8163 94.7271 94.8974 94.6651 94.9629C93.8571 96.0058 93.3818 97.268 93.3014 98.5848C93.7348 98.8858 94.4056 98.2674 94.8225 98.5848C95.0986 98.8167 94.9716 99.275 94.8059 99.6063C94.4213 100.374 94.0247 101.136 93.6161 101.892C93.2899 102.559 92.8646 103.172 92.3545 103.711C92.0039 104.048 91.5925 104.313 91.2364 104.644C90.4082 105.42 89.9086 106.516 89.0528 107.273C88.9805 107.351 88.8826 107.401 88.7767 107.413C88.6678 107.406 88.5652 107.36 88.4868 107.284C88.0593 106.936 87.7047 106.507 87.4433 106.022C87.1176 105.42 87.1672 105.244 87.6807 104.818C88.6414 104.059 89.5773 103.245 90.1763 102.152Z" fill="#BE6F72"/>
<path d="M80.7708 106.737C80.9365 106.839 81.1408 106.955 81.323 106.87C81.3974 106.825 81.4607 106.763 81.5079 106.69C81.8235 106.269 82.0868 105.811 82.292 105.326C82.3273 105.258 82.3471 105.183 82.3499 105.106C82.3499 104.929 82.1926 104.799 82.0463 104.697C81.2623 104.197 80.4194 103.797 79.5368 103.504C78.808 103.228 78.0461 102.988 77.2731 103.057C76.9827 103.077 76.6992 103.155 76.4397 103.287C76.1802 103.418 75.95 103.601 75.763 103.825C75.2109 104.534 76.1357 104.749 76.7155 105.006C78.0571 105.616 79.5092 105.97 80.7708 106.737Z" fill="#F59E67"/>
<path opacity="0.1" d="M79.9012 111.43C79.8919 111.493 79.8975 111.558 79.9177 111.618C79.9378 111.678 79.9719 111.733 80.0172 111.778C80.0972 111.386 79.9923 110.972 80.0751 110.577C80.1966 109.984 80.7736 109.536 80.8233 108.94C79.766 108.733 79.9095 110.79 79.9012 111.43Z" fill="black"/>
<path opacity="0.2" d="M128.577 89.8418V92.561L117.352 93.2429L117.012 90.5209L128.577 89.8418Z" fill="black"/>
<path d="M78.8467 94.2396C79.5479 93.6682 79.1421 92.4701 79.6169 91.7026C79.893 91.283 80.3595 91.0621 80.8178 90.8744C81.3709 90.6156 81.9634 90.4514 82.5708 90.3885C82.875 90.3593 83.1818 90.399 83.4686 90.5046C83.7553 90.6102 84.0146 90.7791 84.2272 90.9986C84.4066 91.2029 84.5281 91.4514 84.6965 91.6639C84.905 91.9119 85.1768 92.0988 85.483 92.2048C85.7893 92.3108 86.1185 92.3318 86.4357 92.2658C86.8028 92.1829 87.1838 91.9041 87.159 91.5287C87.1175 91.3003 87.0009 91.0924 86.8277 90.9379L86.0381 90.0628C85.1409 89.0689 84.1443 88.0144 82.8275 87.7659C81.911 87.592 80.9724 87.8377 80.089 88.1331C79.7328 88.2518 79.3326 88.4285 79.2332 88.7901C79.1669 89.0386 79.2663 89.3091 79.2083 89.5603C79.0951 90.06 78.4547 90.2284 78.1565 90.648C77.8584 91.0676 77.9495 91.5646 77.8639 92.0283C77.7783 92.4921 77.5299 92.9449 77.4995 93.4252C77.4802 93.7151 77.6265 94.2534 77.9522 94.3583C78.278 94.4632 78.6451 93.8945 78.8467 94.2396Z" fill="#3F3D56"/>
<path d="M86.8911 91.1311C86.6583 89.9165 86.1565 88.7695 85.4224 87.7742C84.7697 86.8442 83.8617 86.1232 82.8081 85.6982C82.2814 85.4924 81.715 85.4085 81.1513 85.453C80.5875 85.4975 80.0412 85.6691 79.5533 85.9549C78.829 86.4719 78.2654 87.1829 77.9273 88.0061C77.2123 89.5465 76.9473 91.4293 77.7782 92.909C78.1095 92.5059 78.6782 92.6881 79.1806 92.5418C79.8101 92.3623 80.3429 91.9427 80.9419 91.6805C82.7501 90.8826 84.9587 91.5286 86.8911 91.1311Z" fill="#FED253"/>
<path opacity="0.1" d="M78.2006 91.0456C78.1371 90.5487 78.0957 89.9718 78.4491 89.6184C78.4666 89.5967 78.489 89.5795 78.5144 89.568C78.5398 89.5565 78.5675 89.5511 78.5954 89.5521C78.62 89.5601 78.6427 89.5731 78.6622 89.5902C78.6817 89.6073 78.6974 89.6281 78.7085 89.6515C78.9125 89.9734 79.0862 90.3135 79.2275 90.6674C79.0218 90.62 78.8066 90.6355 78.6097 90.7117C78.4128 90.788 78.2434 90.9217 78.1233 91.0953" fill="black"/>
<path opacity="0.1" d="M84.6522 89.6432L84.5528 88.6577C84.5368 88.5765 84.5435 88.4924 84.5722 88.4148C84.6138 88.3498 84.678 88.3025 84.7524 88.2821C84.8269 88.2617 84.9063 88.2696 84.9752 88.3043C85.111 88.3796 85.2229 88.4915 85.2982 88.6273C85.528 88.9801 85.7187 89.3568 85.8669 89.7509C85.4223 89.6653 84.9648 89.6709 84.5225 89.7675" fill="black"/>
<path opacity="0.1" d="M87.1231 129.642V131.895L85.221 132.022H75.2164V129.642H87.1231Z" fill="black"/>
<path d="M87.123 129.642V132.022H75.2164L43.585 92.3983V90.5266H50.216L87.123 129.642Z" fill="#F1C0C0"/>
<path opacity="0.1" d="M87.123 129.642V132.022H75.2164L43.585 92.3983V90.5266H50.216L87.123 129.642Z" fill="black"/>
<path opacity="0.1" d="M87.123 129.642V132.022H75.2164L43.585 92.3983V90.5266L75.3875 129.642H87.123Z" fill="black"/>
<path d="M47.7315 169.357C47.7523 169.469 47.7498 169.584 47.7241 169.695C47.6984 169.806 47.6502 169.91 47.5823 170.002C47.5144 170.093 47.4284 170.169 47.3296 170.226C47.2308 170.283 47.1214 170.319 47.0082 170.331C46.2408 170.591 45.4264 170.847 44.8825 171.435C44.3387 172.023 44.231 173.114 44.8825 173.591C45.2155 173.792 45.5979 173.896 45.9868 173.892C47.2373 173.978 48.5404 173.961 49.675 173.431C50.4866 173.056 51.2513 172.415 52.143 172.473C52.604 172.501 53.0954 172.716 53.5068 172.507C53.9181 172.297 54.034 171.711 54.0368 171.223C54.0473 170.203 53.8935 169.188 53.5813 168.216C53.5399 168.084 51.7841 167.982 51.5743 167.94L49.4458 167.664C49.0428 167.612 48.1732 167.308 47.8557 167.645C47.5383 167.982 47.7315 168.956 47.7315 169.357Z" fill="#F59E67"/>
<path d="M60.4332 162.466C60.5233 162.963 60.6696 163.448 60.8694 163.913C61.1648 164.663 61.543 165.461 62.2662 165.826C62.9233 166.154 63.7294 166.035 64.3975 165.724C64.6763 165.608 64.9206 165.423 65.1069 165.185C65.3225 164.81 65.4187 164.377 65.383 163.946C65.383 162.877 65.3195 161.773 64.8309 160.823C64.4113 159.995 63.6797 159.283 63.6687 158.366L61.1537 158.852C61.0191 158.865 60.8908 158.916 60.7838 158.999C60.7041 159.083 60.6488 159.187 60.6237 159.3C60.3551 160.333 60.2904 161.408 60.4332 162.466Z" fill="#F59E67"/>
<path d="M30.4001 136.24C30.2952 137.129 30.3394 138.081 30.8032 138.849C31.267 139.616 32.2443 140.124 33.089 139.818C33.1323 139.807 33.1729 139.787 33.2085 139.76C33.244 139.733 33.2738 139.699 33.2961 139.66C33.3185 139.567 33.3058 139.469 33.2602 139.384C32.8872 138.389 32.9179 137.287 33.3457 136.314C33.401 136.187 33.5197 136.038 33.6494 136.088C33.7037 136.116 33.7474 136.16 33.7736 136.215C33.9073 136.446 33.9742 136.71 33.9669 136.977C33.9279 137.219 33.9205 137.465 33.9448 137.709C33.9973 137.946 34.2512 138.17 34.4721 138.067C34.5359 138.028 34.5911 137.976 34.6343 137.915C34.6775 137.854 34.7078 137.785 34.7233 137.711C35.3389 135.931 35.0601 133.985 34.7785 132.121C34.7809 132.078 34.7738 132.035 34.7578 131.996C34.7418 131.956 34.7173 131.92 34.6859 131.891C34.6546 131.862 34.6172 131.84 34.5765 131.827C34.5357 131.813 34.4925 131.809 34.45 131.815C33.147 131.685 32.4347 131.373 31.6894 132.585C31.0489 133.606 30.4001 135.011 30.4001 136.24Z" fill="#F59E67"/>
<path d="M45.6333 131.71C45.2469 133.316 44.8576 134.942 44.8328 136.593C44.8396 137.622 44.917 138.648 45.0647 139.666L45.3545 142.057C45.4539 142.863 45.5505 143.666 45.6913 144.464C45.7811 144.875 45.8302 145.294 45.8376 145.714C45.8106 146.129 45.7449 146.54 45.6416 146.943C45.468 147.788 45.371 148.648 45.3518 149.51C45.3214 150.891 45.4926 152.271 45.6002 153.651C45.8152 156.402 45.7828 159.166 45.5036 161.911C45.3921 162.652 45.553 163.408 45.9563 164.04C46.12 164.239 46.2548 164.46 46.3566 164.697C46.5637 165.329 46.0806 165.961 45.9563 166.61C45.8769 167.116 46.0015 167.632 46.3027 168.046C46.604 168.461 47.0573 168.738 47.563 168.818C49.7716 169.081 52.0408 168.962 54.0312 169.972C54.241 169.359 53.7828 168.664 53.9926 168.04C54.1251 167.653 54.4895 167.402 54.7379 167.076C55.0717 166.58 55.2381 165.99 55.2128 165.392C55.2225 164.612 55.0839 163.837 54.8042 163.109C54.5695 162.502 54.2327 161.903 54.2521 161.251C54.2521 160.931 54.3652 160.594 54.2355 160.299C54.1465 160.129 54.0256 159.978 53.8794 159.854C53.0543 158.951 52.5473 157.802 52.4356 156.583C52.3279 155.374 52.3668 154.156 52.5515 152.956C52.6868 151.813 52.869 150.606 53.595 149.715C53.2583 147.011 53.4563 144.267 54.1775 141.64C54.2493 141.397 54.3625 141.115 54.611 141.057C54.7097 141.047 54.8093 141.061 54.9016 141.097C54.9938 141.134 55.076 141.192 55.141 141.267C55.5744 141.673 55.7815 142.261 55.9692 142.824C56.1762 143.434 56.386 144.086 56.2287 144.71C56.1624 144.986 56.0299 145.229 55.9526 145.494C55.7847 146.026 55.8141 146.601 56.0354 147.114C56.1433 147.301 56.211 147.509 56.2342 147.724C56.2086 147.909 56.1526 148.088 56.0686 148.254C55.9662 148.581 55.9337 148.925 55.9731 149.266C56.0126 149.606 56.1232 149.934 56.2977 150.228C56.6496 150.814 57.0837 151.347 57.5869 151.81C57.3465 152.87 57.4087 153.975 57.7664 155.001C57.7922 155.047 57.8086 155.098 57.8148 155.151C57.8209 155.203 57.8167 155.257 57.8022 155.308C57.7526 155.413 57.6256 155.451 57.5262 155.526C57.2501 155.752 57.4213 156.18 57.6062 156.475C58.1132 157.286 58.6729 158.063 59.2819 158.8C59.8341 159.46 59.7844 160.732 60.6071 160.97C60.9528 161.044 61.3104 161.044 61.6561 160.97C62.4677 160.846 63.3732 160.611 63.7707 159.893C63.9336 159.598 63.9999 159.239 64.2539 159.018C64.5078 158.797 64.8364 158.758 64.9771 158.493C65.1179 158.228 64.9606 157.881 65.0075 157.574C65.0544 157.268 65.3222 157.022 65.4078 156.699C65.6121 155.954 64.7425 155.341 64.6238 154.579C64.4526 153.475 65.844 152.646 65.786 151.542C65.6645 149.143 65.5872 146.733 65.463 144.334C65.3071 142.185 65.285 140.029 65.3968 137.877C65.4934 136.538 65.6728 135.136 65.1814 133.891C64.4747 132.135 62.5257 131.149 60.6402 130.962C58.7547 130.774 56.8747 131.221 55.0057 131.514C51.9039 131.992 48.7525 132.058 45.6333 131.71Z" fill="#3F3D56"/>
<path d="M51.2375 105.324C53.68 105.324 55.66 103.344 55.66 100.901C55.66 98.4586 53.68 96.4785 51.2375 96.4785C48.795 96.4785 46.8149 98.4586 46.8149 100.901C46.8149 103.344 48.795 105.324 51.2375 105.324Z" fill="#FBBEBE"/>
<path d="M49.4376 106.149C49.2873 106.499 49.0347 106.795 48.7129 106.998C48.3912 107.202 48.0153 107.303 47.6349 107.289C47.4748 107.952 47.8585 108.62 48.2974 109.141C49.2089 110.202 50.3868 111 51.7096 111.454C53.0324 111.908 54.4523 112.001 55.8229 111.723C56.3563 111.627 56.8623 111.416 57.3054 111.104C57.9028 110.605 58.3038 109.911 58.4373 109.144C58.5643 108.383 58.6005 107.609 58.5449 106.839C58.5604 106.687 58.5169 106.535 58.4235 106.414C58.3131 106.328 58.1766 106.284 58.037 106.287C57.1039 106.204 56.1294 106.168 55.3095 105.71C54.4895 105.252 53.9071 104.216 54.3018 103.366C54.2383 103.499 52.6261 103.562 52.4135 103.59C51.7482 103.684 51.0829 103.789 50.4204 103.91C50.102 103.928 49.7873 103.987 49.4845 104.087C49.0842 104.294 49.2333 104.192 49.3271 104.567C49.4679 105.141 49.675 105.553 49.4376 106.149Z" fill="#FBBEBE"/>
<path d="M52.8028 108.838C52.2072 108.845 51.6129 108.779 51.0332 108.642C50.4479 108.505 49.932 108.161 49.5812 107.673C49.3769 107.364 49.2444 106.974 48.9186 106.8C48.3858 106.524 47.7785 106.991 47.3533 107.419C46.9662 107.841 46.5176 108.202 46.0227 108.49C45.4319 108.802 44.7417 108.912 44.1841 109.28C43.7485 109.609 43.3746 110.012 43.0798 110.472L39.168 115.8C37.5972 117.942 36.2307 120.242 34.8311 122.503C33.6191 124.46 32.9842 126.713 32.0704 128.825C31.998 128.954 31.9681 129.103 31.9848 129.25C32.018 129.394 32.1919 129.509 32.3134 129.427C31.902 129.835 32.2637 130.531 32.167 131.105C32.0572 131.507 31.8281 131.866 31.51 132.135C32.1176 132.056 32.7345 132.085 33.332 132.22C33.9496 132.395 34.5323 132.676 35.0547 133.049C35.3887 132.996 35.3583 132.403 35.6068 132.182C35.7559 132.052 35.9767 132.069 36.1727 132.03C36.9098 131.886 37.2024 131 37.7684 130.501C38.2404 130.084 38.9085 129.948 39.4082 129.556C40.2198 128.919 40.3937 127.784 40.8189 126.843C41.1805 126.045 41.7492 125.349 42.0667 124.532C42.2737 124.002 42.3731 123.428 42.6685 122.939C43.1406 122.15 44.0295 121.73 44.877 121.352C45.4126 121.112 45.9813 120.863 46.5583 120.902C46.5279 122.185 46.365 123.45 46.6438 124.703C46.7405 125.145 46.8757 125.576 46.9917 126.014C47.519 127.991 47.6432 130.051 47.668 132.088C48.9364 131.798 50.2319 131.642 51.5329 131.624C52.5571 131.594 53.5786 131.726 54.6028 131.707C55.8174 131.685 57.0183 131.45 58.233 131.367C59.4477 131.285 60.7176 131.367 61.7915 131.919C61.7043 130.17 61.7532 128.416 61.9378 126.674L62.2304 123.93C62.2964 123.133 62.4191 122.341 62.5976 121.562C62.7577 120.932 62.9896 120.325 63.1663 119.698C63.7874 117.49 63.6742 115.132 63.5555 112.832C63.4948 111.651 63.0393 110.489 62.5037 109.437C62.3099 109.046 62.0884 108.67 61.8412 108.311C61.194 107.419 60.3315 106.706 59.3342 106.237C58.3368 105.769 57.2371 105.561 56.1377 105.633C55.9972 105.637 55.8588 105.667 55.7291 105.721C55.4961 105.87 55.3141 106.087 55.2073 106.342C54.6362 107.369 53.8075 108.229 52.8028 108.838Z" fill="#3F3D56"/>
<path d="M47.3478 102.367C47.472 102.091 47.806 101.989 48.0103 101.768C48.4023 101.348 48.2256 100.677 48.2864 100.112C48.3858 99.2833 49.0732 98.5904 49.8599 98.295C50.6623 98.0375 51.5161 97.9835 52.3445 98.1377C52.7433 98.1668 53.1285 98.2949 53.4653 98.5104C53.6089 98.6153 53.7414 98.7505 53.8767 98.8472C54.1233 98.9962 54.4183 99.043 54.6989 98.9775C54.9795 98.912 55.2234 98.7394 55.3785 98.4966C54.4012 97.3205 53.319 96.0782 51.8338 95.7166C51.3243 95.6126 50.8051 95.5635 50.2851 95.5703C49.5977 95.5565 48.8882 95.5454 48.2533 95.8077C47.3892 96.1638 46.7818 96.9837 46.4699 97.8671C46.1971 98.7626 46.0512 99.6918 46.0365 100.628C45.9799 101.252 45.9799 101.881 46.0365 102.505C46.1432 103.358 46.46 104.171 46.9585 104.871C47.0259 104.98 47.1212 105.068 47.2346 105.128C48.4934 105.68 47.2456 102.596 47.3478 102.367Z" fill="#3F3D56"/>
<path d="M55.2349 97.8146C55.083 96.5143 54.1555 95.4404 53.1699 94.5764C52.3756 93.8271 51.4294 93.2575 50.3955 92.9062C49.3547 92.5997 48.1566 92.666 47.2649 93.2871C46.5471 93.7868 46.0916 94.5819 45.741 95.3825C45.2805 96.3272 45.0524 97.3684 45.0757 98.4192C45.1447 99.4627 45.6527 100.52 46.5582 101.047C46.8839 100.567 47.4499 100.318 47.9937 100.122C50.3641 99.2232 52.7813 98.4527 55.2349 97.8146Z" fill="#FED253"/>
<path opacity="0.1" d="M46.8619 97.2736C46.9502 97.2736 47.0082 97.3647 47.0524 97.4392C47.2771 97.7894 47.4702 98.159 47.6293 98.5435C47.3064 98.6125 46.7515 98.6898 46.5913 98.4054C46.5058 98.2619 46.6079 97.2598 46.8619 97.2736Z" fill="black"/>
<path opacity="0.1" d="M53.1534 96.6496C53.0871 96.7131 53.0098 96.5833 53.0098 96.4895V95.4183C53.008 95.3885 53.0147 95.3589 53.0291 95.3327C53.0406 95.3197 53.0545 95.309 53.0702 95.3014C53.0858 95.2938 53.1029 95.2895 53.1202 95.2886C53.3439 95.2637 53.5288 95.4542 53.6724 95.6364C53.8902 95.9317 54.0797 96.2469 54.2383 96.5778L53.0705 96.5419" fill="black"/>
<path d="M67.7267 114.387C67.9808 114.146 68.252 113.923 68.5384 113.721C69.3031 113.211 70.2279 113.009 71.0864 112.683C71.945 112.358 72.8174 111.83 73.1514 110.975C73.3186 110.44 73.3731 109.876 73.3115 109.318C73.3195 109.085 73.2781 108.853 73.19 108.636C73.085 108.445 72.9353 108.282 72.7539 108.162C71.5889 107.3 70.0263 107.231 68.5798 107.32C65.3905 107.517 62.2645 108.298 59.3565 109.622C59.2027 109.673 59.0679 109.769 58.97 109.898C58.9134 110.018 58.8877 110.15 58.8954 110.282C58.844 111.096 58.9499 111.912 59.2074 112.686C59.5884 113.669 60.3724 114.461 60.7009 115.463C60.85 115.913 60.8997 116.391 61.0294 116.844C61.1359 117.311 61.4124 117.723 61.8052 117.998C62.8956 118.649 63.9253 117.774 64.6817 117.095L67.7267 114.387Z" fill="#3F3D56"/>
<path d="M53.446 118.21L52.0464 115.157C51.8411 114.734 51.6641 114.298 51.5163 113.851C51.3562 113.318 51.2789 112.766 51.1298 112.231C50.6384 110.447 49.3989 108.962 48.7943 107.215C48.7561 107.057 48.6782 106.912 48.568 106.792C48.4797 106.73 48.3788 106.688 48.2724 106.669C48.1661 106.649 48.0568 106.654 47.9523 106.682C47.1076 106.828 46.4478 107.471 45.6748 107.836C45.3159 108.001 44.9294 108.112 44.5706 108.302C44.3912 108.387 44.2322 108.51 44.1045 108.662C43.9768 108.814 43.8834 108.992 43.8307 109.183C43.7451 109.605 43.9549 110.011 44.1316 110.423C44.8825 112.118 45.0537 114.011 45.0868 115.867C45.1116 117.114 45.0481 118.453 44.3111 119.455C42.8948 121.388 43.8003 124.226 44.3304 126.564C44.3939 126.84 44.4684 127.138 44.5126 127.431C44.5593 127.797 44.5805 128.166 44.5761 128.535C44.5761 129.775 44.5071 131.053 43.9881 132.176C44.5005 132.449 45.0652 132.609 45.6444 132.646C47.2475 132.85 48.8569 132.994 50.4728 133.076C50.9791 133.124 51.4896 133.098 51.9884 132.999C52.5808 132.839 53.1029 132.486 53.4723 131.996C53.8418 131.506 54.0375 130.907 54.0285 130.294C54.1168 131.058 54.2797 131.889 54.8346 132.419C55.3895 132.949 56.1984 133.029 56.952 133.071C59.0791 133.184 61.2118 133.124 63.3291 132.891C63.4642 132.885 63.5971 132.854 63.7211 132.8C64.1297 132.596 64.1518 132.033 64.1186 131.58C64.0579 130.733 63.9944 129.885 63.8923 129.043C63.8057 128.506 63.7613 127.964 63.7598 127.42C63.8018 126.861 63.8942 126.306 64.0358 125.763C64.4057 124.041 64.6984 122.282 64.5741 120.518C64.525 120.088 64.5075 119.656 64.5217 119.223C64.5935 118.249 65.1069 117.321 65.0103 116.352C64.7343 113.503 64.5106 110.58 63.7156 107.83C63.572 107.339 63.3898 106.812 62.9619 106.53C62.4098 106.16 61.6341 106.353 61.0019 106.119C60.7052 105.981 60.4232 105.813 60.1599 105.619C59.5878 105.261 58.932 105.06 58.2578 105.034C57.7498 105.014 57.1839 105.128 56.8775 105.536C56.7356 105.766 56.6417 106.023 56.6014 106.29C56.2011 107.974 55.7318 109.639 55.2625 111.303L54.8125 112.899L53.6061 117.183C53.4874 117.639 53.5675 117.78 53.446 118.21Z" fill="#F59E67"/>
<path d="M60.5049 101.495L87.2086 129.557V131.936H75.3019L55.2349 105.746" fill="#F1C0C0"/>
<path opacity="0.1" d="M60.5049 101.495L87.2086 129.557V131.936H75.3019L55.2349 105.746" fill="black"/>
<path opacity="0.1" d="M55.66 105.376L55.7456 105.406L75.4731 129.556H87.2086V131.936H75.3019L55.2349 105.746L55.66 105.376Z" fill="black"/>
<path d="M58.7327 105.967C57.7664 106.389 56.6926 106.93 56.4027 107.946C56.3455 108.125 56.3331 108.314 56.3668 108.498C56.4374 108.715 56.5721 108.905 56.7529 109.044C56.9338 109.182 57.1524 109.262 57.38 109.274C57.8346 109.285 58.2866 109.202 58.7078 109.031L64.4085 107.148C64.5631 107.099 64.7398 107.024 64.7785 106.872C64.7884 106.777 64.7692 106.681 64.7233 106.596C64.5466 106.166 64.3727 105.285 64.0027 104.984C63.6991 104.741 63.0972 104.827 62.7301 104.832C61.3166 104.843 59.9888 105.415 58.7327 105.967Z" fill="#F59E67"/>
<path d="M63.815 107.372C64.7754 107.369 65.7302 107.517 66.6446 107.811C67.5631 108.109 68.3766 108.665 68.9884 109.412C69.1666 109.621 69.2933 109.869 69.3583 110.135C69.4135 110.411 70.3135 110.577 70.1148 110.765C70.7193 110.668 70.5758 110.952 71.1886 110.947C71.8015 110.941 72.4641 110.784 72.8312 110.295C73.0863 109.894 73.2 109.419 73.1542 108.945C73.1623 108.618 73.1001 108.292 72.972 107.99C72.6959 107.411 72.061 107.099 71.4757 106.831L66.5452 104.575C66.2592 104.423 65.9522 104.314 65.6342 104.252C65.3666 104.227 65.097 104.234 64.8309 104.272L62.5975 104.528C63.0859 104.845 63.4836 105.282 63.7513 105.799C64.019 106.315 64.1475 106.893 64.1242 107.474" fill="#3F3D56"/>
</svg>
